<?xml version="1.0" standalone="no"?>
<!DOCTYPE svg PUBLIC "-//W3C//DTD SVG 20010904//EN"
 "http://www.w3.org/TR/2001/REC-SVG-20010904/DTD/svg10.dtd">
<svg version="1.0" xmlns="http://www.w3.org/2000/svg"
 width="512.000000pt" height="512.000000pt" viewBox="0 0 512.000000 512.000000"
 preserveAspectRatio="xMidYMid meet">

<g transform="translate(0.000000,512.000000) scale(0.100000,-0.100000)"
fill="#fff" stroke="none">
<path d="M2497 5107 c-15 -7 -572 -534 -1237 -1172 -895 -857 -1216 -1171
-1231 -1202 -65 -134 -7 -297 125 -359 49 -23 61 -24 268 -24 l218 0 2 -1057
3 -1058 27 -51 c40 -76 70 -107 140 -145 l63 -34 512 -3 c496 -3 513 -2 552
17 21 11 50 37 62 58 l24 38 5 733 c4 637 7 734 20 742 9 6 215 10 510 10 295
0 501 -4 510 -10 13 -8 16 -105 20 -742 l5 -733 24 -38 c12 -21 41 -47 62 -58
39 -19 56 -20 552 -17 l512 3 63 34 c70 38 100 69 140 145 l27 51 3 1058 2
1057 218 0 c207 0 219 1 268 24 137 64 192 231 119 364 -20 38 -319 329 -1231
1203 -662 635 -1216 1159 -1231 1166 -16 7 -44 12 -63 12 -19 0 -47 -5 -63
-12z"/>
</g>
</svg>
