<?xml version="1.0" standalone="no"?>
<!DOCTYPE svg PUBLIC "-//W3C//DTD SVG 20010904//EN"
 "http://www.w3.org/TR/2001/REC-SVG-20010904/DTD/svg10.dtd">
<svg version="1.0" xmlns="http://www.w3.org/2000/svg"
 width="512.000000pt" height="512.000000pt" viewBox="0 0 512.000000 512.000000"
 preserveAspectRatio="xMidYMid meet">

<g transform="translate(0.000000,512.000000) scale(0.100000,-0.100000)"
fill="#000000" stroke="none">
<path d="M2780 5017 c-101 -24 -184 -85 -224 -164 -36 -71 -58 -247 -72 -568
-8 -188 -32 -337 -73 -441 -68 -175 -231 -371 -505 -604 l-135 -115 0 -1411
-1 -1412 88 -30 c161 -56 271 -86 452 -121 254 -50 311 -53 1100 -58 822 -5
894 -2 994 45 124 59 218 179 246 316 20 97 -4 213 -63 302 l-34 52 41 12
c160 48 278 179 309 342 20 108 -17 242 -95 340 l-29 37 42 21 c149 77 246
264 220 428 -22 138 -114 268 -233 326 l-57 28 35 52 c159 240 48 562 -223
646 -62 19 -92 20 -739 20 -371 0 -674 3 -674 8 0 4 27 93 60 197 147 460 187
710 161 990 -22 231 -97 511 -165 610 -87 129 -260 191 -426 152z"/>
<path d="M219 3265 c-56 -18 -113 -77 -129 -134 -7 -27 -9 -477 -8 -1463 l3
-1423 25 -43 c36 -64 88 -91 202 -103 144 -16 1121 -6 1173 12 62 22 111 77
125 141 8 39 10 429 8 1468 l-3 1415 -27 47 c-20 33 -41 53 -75 70 l-48 23
-600 2 c-498 2 -608 -1 -646 -12z"/>
</g>
</svg>
