<?xml version="1.0" standalone="no"?>
<!DOCTYPE svg PUBLIC "-//W3C//DTD SVG 20010904//EN"
 "http://www.w3.org/TR/2001/REC-SVG-20010904/DTD/svg10.dtd">
<svg version="1.0" xmlns="http://www.w3.org/2000/svg"
 width="512.000000pt" height="512.000000pt" viewBox="0 0 512.000000 512.000000"
 preserveAspectRatio="xMidYMid meet">

<g transform="translate(0.000000,512.000000) scale(0.100000,-0.100000)"
fill="#000000" stroke="none">
<path d="M2701 5109 c-86 -26 -153 -94 -190 -194 -29 -77 -44 -206 -36 -311
l6 -92 -59 -148 c-197 -492 -440 -963 -625 -1210 -41 -55 -113 -136 -160 -181
-97 -93 -143 -151 -211 -269 l-47 -80 -67 23 c-65 22 -77 22 -463 23 -421 0
-445 -2 -542 -52 -86 -43 -173 -147 -213 -253 -18 -48 -19 -95 -22 -965 -2
-567 1 -939 7 -978 30 -190 185 -345 373 -372 35 -5 216 -10 403 -10 372 0
435 7 525 56 l50 27 182 -22 c468 -55 796 -76 1459 -92 366 -8 521 -8 625 0
413 34 722 166 879 373 89 118 125 226 127 383 1 98 1 101 33 135 92 99 161
220 189 331 22 91 21 237 -4 333 l-20 78 31 44 c81 118 125 267 115 390 -8 97
-47 217 -96 293 l-41 63 15 44 c42 123 41 278 -1 394 -27 74 -101 178 -167
232 -247 206 -730 252 -1358 128 -84 -16 -159 -30 -167 -30 -11 0 -13 16 -7
85 8 107 37 232 114 490 75 251 99 359 111 512 11 132 3 248 -24 348 -60 224
-239 403 -464 460 -80 20 -215 28 -260 14z m212 -300 c149 -50 225 -156 246
-341 17 -153 -12 -326 -103 -619 -96 -308 -132 -498 -124 -659 10 -187 94
-290 239 -290 20 0 114 16 210 35 295 60 372 69 624 69 185 1 248 -3 320 -17
301 -61 410 -234 300 -478 -50 -109 -47 -130 31 -226 140 -171 134 -323 -19
-505 -55 -65 -60 -119 -21 -208 26 -58 29 -76 29 -175 0 -102 -2 -115 -29
-170 -20 -41 -57 -86 -117 -146 -52 -50 -91 -97 -95 -114 -4 -16 -1 -70 6
-121 14 -107 5 -168 -37 -247 -73 -133 -266 -233 -551 -284 -84 -15 -154 -17
-512 -15 -684 3 -1210 31 -1650 88 l-45 6 3 886 c3 620 0 919 -8 993 -11 106
-11 107 17 180 51 130 106 211 228 334 189 191 340 417 529 794 119 236 225
473 320 713 l66 168 -3 147 c-1 82 2 165 6 186 7 34 11 37 43 37 19 0 63 -9
97 -21z m-1663 -2451 c18 -13 43 -36 54 -51 21 -28 21 -31 21 -946 l0 -917
-27 -41 c-48 -72 -60 -74 -475 -71 -347 3 -363 4 -389 24 -15 11 -37 33 -48
48 -21 27 -21 36 -24 940 l-2 912 23 44 c42 80 40 80 463 80 368 0 371 0 404
-22z"/>
</g>
</svg>
