<?xml version="1.0" standalone="no"?>
<!DOCTYPE svg PUBLIC "-//W3C//DTD SVG 20010904//EN"
 "http://www.w3.org/TR/2001/REC-SVG-20010904/DTD/svg10.dtd">
<svg version="1.0" xmlns="http://www.w3.org/2000/svg"
 width="512.000000pt" height="512.000000pt" viewBox="0 0 512.000000 512.000000"
 preserveAspectRatio="xMidYMid meet">

<g transform="translate(0.000000,512.000000) scale(0.100000,-0.100000)"
fill="#000000" stroke="none">
<path d="M2205 4738 c-50 -18 -92 -55 -114 -101 -18 -36 -21 -62 -21 -160 l0
-117 491 0 491 0 -4 129 c-3 125 -4 131 -33 172 -16 23 -48 52 -70 63 -38 20
-57 21 -375 23 -217 1 -346 -2 -365 -9z"/>
<path d="M1333 4225 c-79 -22 -150 -61 -209 -117 -97 -92 -144 -189 -159 -330
l-7 -68 1602 0 1602 0 -7 68 c-4 37 -15 93 -25 124 -48 155 -199 293 -358 327
-38 8 -391 11 -1220 10 -971 0 -1176 -3 -1219 -14z"/>
<path d="M1220 3573 c0 -10 70 -735 157 -1610 l158 -1593 1025 0 1025 0 158
1593 c87 875 157 1600 157 1610 0 16 -71 17 -1340 17 -1269 0 -1340 -1 -1340
-17z m670 -341 c23 -19 24 -30 107 -1238 46 -670 81 -1229 78 -1241 -11 -45
-82 -55 -104 -14 -8 15 -167 2240 -173 2420 -1 45 2 57 21 73 29 23 43 23 71
0z m710 -2 c20 -20 20 -33 20 -1250 0 -1217 0 -1230 -20 -1250 -11 -11 -29
-20 -40 -20 -11 0 -29 9 -40 20 -20 20 -20 33 -20 1250 0 1217 0 1230 20 1250
11 11 29 20 40 20 11 0 29 -9 40 -20z m704 -3 c20 -20 23 -32 20 -68 -3 -24
-41 -575 -85 -1223 -44 -648 -84 -1187 -90 -1197 -21 -41 -93 -31 -104 14 -3
12 32 571 78 1241 83 1204 85 1220 107 1238 30 24 46 23 74 -5z"/>
</g>
</svg>
