<svg width="30" height="30" viewBox="0 0 30 30" fill="none" xmlns="http://www.w3.org/2000/svg">
<path d="M4.33594 0.0410156C3.1582 0.240234 2.10352 1.17188 1.74023 2.31445L1.61133 2.72461V13.125V23.5254L1.76367 23.9414C1.95703 24.4688 2.2793 24.9551 2.66016 25.2891C2.91797 25.5176 9.10547 29.1504 10.0898 29.6543C10.5059 29.8652 11.0508 30 11.4961 30C12.5684 30 13.752 29.3438 14.291 28.4473C14.6719 27.8145 14.7305 27.5684 14.7656 26.3379L14.7949 25.2246L17.5195 25.1953C20.1504 25.166 20.2559 25.1602 20.584 25.0371C21.6855 24.6211 22.4648 23.7188 22.7051 22.5879C22.8105 22.0898 22.834 18.3926 22.7344 18.0352C22.6055 17.5723 22.2012 17.2676 21.709 17.2676C21.2402 17.2676 20.9004 17.502 20.7129 17.9414C20.6426 18.123 20.625 18.4922 20.625 20.168C20.625 21.9902 20.6133 22.2012 20.5137 22.4121C20.3848 22.7051 20.1094 22.9453 19.8164 23.0273C19.6816 23.0625 18.6621 23.0859 17.1855 23.0859H14.7656V15.6562C14.7656 7.49414 14.7832 7.93945 14.4082 7.18945C14.291 6.96094 14.0684 6.67383 13.8047 6.41602C13.4238 6.04102 13.1074 5.84766 10.0781 4.10156L6.76172 2.19727L13.2949 2.17969L19.834 2.16797L20.0918 2.32617C20.2559 2.43164 20.4023 2.58398 20.4902 2.74805C20.625 3.00586 20.625 3.01172 20.625 5.29688C20.625 7.39453 20.6367 7.60547 20.7363 7.82227C21.0703 8.56055 22.0078 8.69531 22.5234 8.08594C22.7871 7.76953 22.8047 7.59375 22.7812 5.04492C22.7637 2.73633 22.7578 2.6543 22.6289 2.28516C22.4414 1.76367 22.2422 1.43555 21.8672 1.04297C21.4863 0.638672 21.1055 0.386719 20.5781 0.181641L20.1855 0.0292969L12.334 0.0234375C8.01562 0.0175781 4.41797 0.0234375 4.33594 0.0410156Z" fill="white"/>
<path d="M24.082 8.54883C23.5605 8.71289 23.2617 9.08789 23.2617 9.57422C23.2617 9.99609 23.373 10.1719 24.0762 10.8691L24.7266 11.5137L20.5723 11.543L16.418 11.5723L16.1895 11.7539C15.9023 11.9883 15.7617 12.2637 15.7617 12.6211C15.7617 13.0078 15.9785 13.3711 16.3066 13.5527L16.5527 13.6816L20.6133 13.7109L24.668 13.7402L24.0762 14.3262C23.7539 14.6484 23.4375 15.0117 23.373 15.1289C23.25 15.3691 23.2266 15.7793 23.3262 16.0371C23.4609 16.3945 23.9121 16.6992 24.3164 16.6992C24.7266 16.6992 24.9492 16.5176 26.6426 14.8184C28.0137 13.4355 28.3008 13.1133 28.3535 12.9199C28.4355 12.627 28.4355 12.5684 28.3535 12.2754C28.3008 12.082 28.0137 11.7656 26.6953 10.4414C25.8223 9.55664 25.002 8.77734 24.873 8.70117C24.6035 8.54297 24.293 8.48438 24.082 8.54883Z" fill="white"/>
</svg>
