<svg xmlns="http://www.w3.org/2000/svg" viewBox="0 0 750 500"><g id="freepik--background-complete--inject-335"><g><g><rect x="70.23" y="173.57" width="77.76" height="69.57" style="fill:#fafafa;"></rect><path d="M148,243.15s-.01-.45-.02-1.29c0-.85-.01-2.1-.02-3.73-.01-3.27-.03-8.04-.05-14.12-.02-12.16-.05-29.53-.09-50.43l.18,.18c-22.4,0-49.12,.02-77.76,.03h0l.21-.21c0,25.31-.02,49.13-.02,69.57l-.18-.18c23.2,.04,42.62,.07,56.24,.09,6.82,.02,12.19,.04,15.86,.05,1.83,0,3.24,.02,4.2,.02,.47,0,.83,0,1.08,.01,.24,0,.37,.01,.37,.01,0,0-.12,0-.35,.01-.25,0-.6,0-1.06,.01-.95,0-2.35,.01-4.16,.02-3.67,.01-9.02,.03-15.82,.05-13.66,.02-33.11,.05-56.36,.09h-.18v-.18c0-20.44-.02-44.26-.02-69.57v-.21h.21c28.63,.01,55.36,.02,77.76,.03h.18v.18c-.04,20.95-.07,38.36-.09,50.54-.02,6.06-.04,10.83-.05,14.08,0,1.61-.02,2.85-.02,3.69,0,.83-.02,1.25-.02,1.25Z" style="fill:#e0e0e0;"></path></g><path d="M100.05,185.94c0,.11-4.09,.21-9.14,.21s-9.14-.09-9.14-.21,4.09-.21,9.14-.21,9.14,.09,9.14,.21Z" style="fill:#e0e0e0;"></path><path d="M133,191.16c0,.11-11.24,.21-25.11,.21s-25.12-.09-25.12-.21,11.24-.21,25.12-.21,25.11,.09,25.11,.21Z" style="fill:#e0e0e0;"></path><rect x="81.9" y="200.01" width="3.28" height="3.28" style="fill:#e0e0e0;"></rect><rect x="89.96" y="200.01" width="3.28" height="3.28" style="fill:#e0e0e0;"></rect><rect x="98.18" y="199.86" width="3.28" height="3.28" style="fill:#e0e0e0;"></rect><rect x="106.09" y="200.01" width="3.28" height="3.28" style="fill:#e0e0e0;"></rect><rect x="114.16" y="200.01" width="3.28" height="3.28" style="fill:#e0e0e0;"></rect><rect x="122.22" y="200.01" width="3.28" height="3.28" style="fill:#e0e0e0;"></rect><rect x="130.29" y="200.01" width="3.28" height="3.28" style="fill:#ebebeb;"></rect><rect x="81.9" y="206.97" width="3.28" height="3.28" style="fill:#ebebeb;"></rect><rect x="89.96" y="206.97" width="3.28" height="3.28" style="fill:#e0e0e0;"></rect><rect x="98.03" y="206.97" width="3.28" height="3.28" style="fill:#ebebeb;"></rect><rect x="106.09" y="206.97" width="3.28" height="3.28" style="fill:#e0e0e0;"></rect><rect x="114.16" y="206.97" width="3.28" height="3.28" style="fill:#e0e0e0;"></rect><rect x="122.37" y="206.82" width="3.28" height="3.28" style="fill:#e0e0e0;"></rect><rect x="130.29" y="206.97" width="3.28" height="3.28" style="fill:#e0e0e0;"></rect><rect x="81.9" y="213.94" width="3.28" height="3.28" style="fill:#e0e0e0;"></rect><rect x="90.11" y="213.79" width="3.28" height="3.28" style="fill:#e0e0e0;"></rect><rect x="98.03" y="213.94" width="3.28" height="3.28" style="fill:#e0e0e0;"></rect><rect x="106.09" y="213.94" width="3.28" height="3.28" style="fill:#ebebeb;"></rect><rect x="114.16" y="213.94" width="3.28" height="3.28" style="fill:#e0e0e0;"></rect><rect x="122.22" y="213.94" width="3.28" height="3.28" style="fill:#e0e0e0;"></rect><rect x="130.29" y="213.94" width="3.28" height="3.28" style="fill:#e0e0e0;"></rect><rect x="81.9" y="220.9" width="3.28" height="3.28" style="fill:#e0e0e0;"></rect><rect x="89.96" y="220.9" width="3.28" height="3.28" style="fill:#e0e0e0;"></rect><rect x="98.03" y="220.9" width="3.28" height="3.28" style="fill:#e0e0e0;"></rect><rect x="106.24" y="220.75" width="3.28" height="3.28" style="fill:#e0e0e0;"></rect><rect x="114.16" y="220.9" width="3.28" height="3.28" style="fill:#e0e0e0;"></rect><rect x="122.22" y="220.9" width="3.28" height="3.28" style="fill:#ebebeb;"></rect><rect x="130.29" y="220.9" width="3.28" height="3.28" style="fill:#e0e0e0;"></rect><rect x="81.9" y="227.87" width="3.28" height="3.28" style="fill:#e0e0e0;"></rect><rect x="89.96" y="227.87" width="3.28" height="3.28" style="fill:#ebebeb;"></rect><rect x="98.03" y="227.87" width="3.28" height="3.28" style="fill:#e0e0e0;"></rect><rect x="106.09" y="227.87" width="3.28" height="3.28" style="fill:#e0e0e0;"></rect><rect x="114.16" y="227.87" width="3.28" height="3.28" style="fill:#e0e0e0;"></rect><rect x="122.37" y="227.72" width="3.28" height="3.28" style="fill:#e0e0e0;"></rect><rect x="130.29" y="227.87" width="3.28" height="3.28" style="fill:#e0e0e0;"></rect></g><g><circle cx="160.02" cy="107.84" r="36.86" transform="translate(27.94 248.52) rotate(-80.78)" style="fill:#e0e0e0;"></circle><circle cx="160.41" cy="107.47" r="33.36" style="fill:#fff;"></circle><path d="M126.71,105.47s0,.19,.01,.55c0,.37,0,.9,0,1.6,0,.35,0,.74,0,1.18,.02,.43,.08,.9,.12,1.41,.05,.51,.1,1.06,.15,1.65,.03,.59,.21,1.2,.32,1.86,.42,2.63,1.43,5.76,3.12,9.13,1.71,3.35,4.27,6.91,7.86,10.02,.45,.39,.91,.77,1.37,1.17,.48,.37,1,.7,1.5,1.06,.52,.34,1,.75,1.56,1.05,.55,.31,1.11,.63,1.68,.94l.85,.48c.3,.13,.6,.26,.9,.4,.6,.27,1.21,.54,1.83,.81,.62,.25,1.28,.43,1.93,.65,.66,.19,1.3,.47,1.99,.59,1.36,.29,2.74,.66,4.18,.76,.72,.07,1.44,.19,2.17,.23,.73,.01,1.47,.02,2.21,.03,.37,0,.74,.03,1.12,0,.37-.03,.75-.07,1.12-.1,.75-.07,1.51-.11,2.27-.22,1.5-.3,3.04-.5,4.53-1.01l1.13-.33c.19-.06,.38-.11,.57-.17l.55-.22c.74-.3,1.48-.6,2.22-.9,.73-.34,1.43-.74,2.16-1.1,.36-.2,.73-.36,1.07-.58l1.03-.67c1.42-.84,2.68-1.92,3.99-2.96,.6-.58,1.21-1.17,1.82-1.75l.46-.44,.42-.48,.83-.97,.83-.97,.74-1.05,.74-1.06,.37-.53c.11-.18,.21-.38,.32-.56,.43-.76,.85-1.51,1.29-2.27,.35-.8,.71-1.6,1.07-2.41,1.31-3.27,2.12-6.78,2.41-10.39,.19-3.62-.16-7.21-1.03-10.62-.25-.85-.5-1.69-.74-2.53-.33-.81-.65-1.62-.98-2.42l-.25-.6-.3-.58-.6-1.15-.6-1.14-.7-1.08-.7-1.07-.35-.53-.4-.5c-.53-.66-1.05-1.32-1.57-1.98-1.17-1.2-2.27-2.44-3.57-3.46l-.93-.8c-.31-.27-.66-.48-.99-.72-.67-.46-1.31-.95-1.99-1.38-.7-.4-1.39-.79-2.08-1.18l-.52-.29c-.18-.09-.36-.16-.54-.24l-1.08-.48c-1.41-.7-2.91-1.1-4.36-1.6-.74-.2-1.48-.34-2.22-.51-.37-.08-.73-.16-1.1-.24-.37-.07-.74-.1-1.11-.15-.74-.09-1.47-.17-2.2-.26-.73-.06-1.46-.04-2.18-.06-1.44-.09-2.86,.11-4.25,.21-.7,.03-1.37,.22-2.05,.32-.67,.14-1.35,.23-2,.4-.65,.19-1.29,.38-1.92,.56-.32,.09-.63,.18-.95,.28-.3,.12-.61,.24-.91,.36-.6,.24-1.2,.48-1.79,.72-.59,.22-1.13,.56-1.69,.83-.55,.29-1.1,.56-1.63,.86-.51,.33-1.01,.66-1.51,.98-3.97,2.62-6.97,5.81-9.1,8.91-2.12,3.12-3.53,6.1-4.29,8.64-.19,.64-.45,1.22-.56,1.8-.13,.57-.25,1.11-.36,1.61-.11,.5-.23,.96-.3,1.38-.05,.43-.1,.82-.14,1.17-.09,.69-.16,1.22-.2,1.58-.05,.36-.08,.54-.08,.54,0,0,0-.18,.04-.54,.04-.37,.09-.9,.17-1.59,.04-.35,.08-.74,.13-1.17,.07-.43,.18-.89,.29-1.39,.11-.5,.22-1.04,.35-1.62,.1-.59,.35-1.17,.54-1.81,.74-2.57,2.14-5.57,4.25-8.72,2.13-3.13,5.14-6.36,9.13-9.01,.5-.33,1.01-.66,1.52-.99,.53-.3,1.09-.58,1.64-.87,.56-.28,1.1-.62,1.7-.85,.59-.24,1.19-.48,1.8-.73,.3-.12,.61-.24,.91-.37,.32-.09,.63-.19,.95-.28,.64-.19,1.28-.38,1.94-.57,.66-.17,1.34-.27,2.02-.41,.68-.11,1.36-.3,2.07-.33,1.4-.11,2.83-.31,4.29-.22,.73,.02,1.46,0,2.2,.05,.73,.08,1.47,.17,2.22,.26,.37,.05,.75,.07,1.12,.14,.37,.08,.74,.16,1.11,.24,.74,.17,1.5,.31,2.24,.51,1.46,.5,2.98,.9,4.4,1.6l1.09,.48c.18,.08,.37,.16,.55,.25l.52,.3c.7,.39,1.4,.79,2.11,1.19,.69,.43,1.34,.92,2.02,1.39,.33,.24,.69,.45,1,.72l.94,.81c1.31,1.03,2.43,2.28,3.61,3.49,.53,.66,1.06,1.33,1.59,2l.4,.5,.35,.54,.7,1.08,.71,1.09,.61,1.15,.6,1.16,.3,.58,.25,.61c.33,.81,.66,1.63,.99,2.45,.25,.85,.5,1.7,.75,2.55,.88,3.45,1.23,7.08,1.04,10.74-.29,3.65-1.12,7.2-2.44,10.51-.36,.81-.72,1.63-1.08,2.43-.44,.77-.87,1.54-1.3,2.3-.11,.19-.21,.38-.33,.57l-.38,.54-.75,1.07-.75,1.06-.84,.98-.84,.98-.42,.49-.46,.45c-.61,.59-1.23,1.18-1.84,1.77-1.33,1.05-2.6,2.14-4.03,2.99l-1.04,.68c-.34,.23-.72,.39-1.08,.59-.73,.37-1.44,.77-2.18,1.11-.75,.3-1.5,.6-2.24,.9l-.56,.22c-.19,.06-.38,.11-.57,.17l-1.14,.33c-1.5,.51-3.06,.71-4.58,1.01-.76,.1-1.53,.14-2.29,.22-.38,.03-.76,.06-1.13,.1-.38,.02-.75,0-1.13,0-.75-.01-1.49-.02-2.23-.04-.74-.04-1.46-.16-2.19-.23-1.46-.11-2.84-.49-4.22-.78-.7-.12-1.34-.4-2-.6-.65-.23-1.32-.41-1.95-.67-.62-.28-1.24-.55-1.85-.82-.3-.14-.61-.27-.91-.4-.29-.16-.57-.32-.86-.48-.57-.32-1.13-.64-1.69-.96-.56-.3-1.05-.71-1.57-1.06-.51-.36-1.03-.71-1.51-1.08-.46-.4-.92-.79-1.38-1.18-3.61-3.15-6.17-6.74-7.87-10.13-1.69-3.4-2.68-6.56-3.08-9.2-.1-.66-.28-1.27-.3-1.87-.05-.59-.09-1.14-.13-1.65-.04-.51-.09-.99-.1-1.42,0-.43,.02-.83,.03-1.18,.02-.69,.03-1.23,.04-1.6,.01-.36,.03-.54,.03-.54Z" style="fill:#ebebeb;"></path><g><path d="M175.6,108.38s-.42,.05-1.19,.08c-.84,.02-1.93,.04-3.26,.07-2.77,.04-6.62,.06-10.98,.07h-.22v-.22c0-.7,0-1.43,0-2.18,0-4.86,.02-9.26,.06-12.45,.03-1.54,.05-2.81,.07-3.77,.03-.89,.05-1.38,.08-1.38s.06,.49,.08,1.38c.02,.97,.04,2.24,.07,3.77,.04,3.19,.06,7.59,.06,12.45,0,.75,0,1.48,0,2.18l-.22-.22c4.35,0,8.21,.03,10.98,.07,1.33,.03,2.42,.05,3.26,.07,.77,.02,1.19,.05,1.19,.08Z" style="fill:#e0e0e0;"></path><path d="M160.28,79.31c.12,0,.22,1.26,.22,2.82s-.1,2.82-.22,2.82-.22-1.26-.22-2.82,.1-2.82,.22-2.82Z" style="fill:#e0e0e0;"></path><path d="M175.57,83.83c.08,.09-.73,1.03-1.81,2.12-1.09,1.09-2.03,1.9-2.12,1.81-.08-.08,.73-1.03,1.81-2.12,1.08-1.09,2.03-1.9,2.12-1.81Z" style="fill:#e0e0e0;"></path><path d="M184.51,93.6c.06,.11-1.01,.75-2.31,1.54-1.31,.79-2.36,1.44-2.44,1.34-.07-.09,.89-.91,2.21-1.71,1.32-.8,2.49-1.28,2.54-1.17Z" style="fill:#e0e0e0;"></path><path d="M189.75,108.09c0,.12-1.72,.22-3.84,.22s-3.84-.1-3.84-.22,1.72-.22,3.84-.22,3.84,.1,3.84,.22Z" style="fill:#e0e0e0;"></path><path d="M136.45,107.58c0,.12-1.63,.22-3.63,.22s-3.63-.1-3.63-.22,1.63-.22,3.63-.22,3.63,.1,3.63,.22Z" style="fill:#e0e0e0;"></path><path d="M140.22,118.37c.08,.09-1.15,1.2-2.74,2.49-1.59,1.28-2.94,2.25-3.02,2.15-.07-.1,1.16-1.21,2.74-2.49,1.59-1.28,2.94-2.24,3.02-2.15Z" style="fill:#e0e0e0;"></path><path d="M149.52,126.72c.1,.07-.81,1.47-1.87,3.24-1.06,1.76-1.87,3.22-1.98,3.17-.11-.05,.54-1.61,1.61-3.39,1.07-1.78,2.15-3.08,2.24-3.01Z" style="fill:#e0e0e0;"></path><path d="M160.28,137.48c-.12,0-.22-1.72-.22-3.84s.1-3.84,.22-3.84,.22,1.72,.22,3.84-.1,3.84-.22,3.84Z" style="fill:#e0e0e0;"></path><path d="M176.85,132.36c-.06,.1-1.57-.77-3.17-2.17-1.61-1.4-2.67-2.77-2.58-2.84,.09-.08,1.28,1.14,2.87,2.52,1.58,1.38,2.95,2.39,2.88,2.5Z" style="fill:#e0e0e0;"></path><path d="M184.63,123.98c-.08,.08-1.22-.92-2.55-2.24s-2.32-2.46-2.24-2.55c.08-.08,1.22,.92,2.55,2.24,1.32,1.32,2.32,2.46,2.24,2.55Z" style="fill:#e0e0e0;"></path><path d="M139.87,97.24c-.08,.08-1.09-.78-2.25-1.94-1.16-1.16-2.02-2.16-1.94-2.25,.08-.08,1.09,.78,2.25,1.94,1.16,1.16,2.02,2.16,1.94,2.25Z" style="fill:#e0e0e0;"></path><path d="M149.46,87.14c-.08,.08-1.07-.76-2.21-1.89-1.14-1.13-1.99-2.11-1.9-2.2,.08-.08,1.07,.76,2.21,1.89,1.13,1.13,1.99,2.11,1.9,2.2Z" style="fill:#e0e0e0;"></path></g><path d="M130.54,107.8c0-17.76,13.88-32.27,31.38-33.3-.66-.04-1.32-.06-1.98-.06-18.42,0-33.36,14.94-33.36,33.36s14.94,33.36,33.36,33.36c.67,0,1.33-.03,1.98-.06-17.5-1.03-31.38-15.54-31.38-33.3Z" style="fill:#f5f5f5;"></path></g><g><rect x="301.6" y="119.65" width="101.7" height="160.72" style="fill:#e0e0e0;"></rect><rect x="304.34" y="122.67" width="95.87" height="155.06" style="fill:#f5f5f5;"></rect><g><rect x="352.28" y="131.7" width="38.23" height="59.32" style="fill:#fff;"></rect><path d="M373.43,136.95c0,.79-.64,1.43-1.43,1.43s-1.43-.64-1.43-1.43,.64-1.43,1.43-1.43,1.43,.64,1.43,1.43Z" style="fill:#e0e0e0;"></path></g><g><rect x="313.75" y="207.53" width="38.23" height="59.32" style="fill:#fff;"></rect><path d="M334.9,212.77c0,.79-.64,1.43-1.43,1.43s-1.43-.64-1.43-1.43,.64-1.43,1.43-1.43,1.43,.64,1.43,1.43Z" style="fill:#e0e0e0;"></path></g><g><rect x="313.24" y="131.7" width="32.65" height="46.32" style="fill:#fff;"></rect><path d="M330.75,135.91c0,.65-.53,1.19-1.18,1.19s-1.19-.53-1.19-1.19,.53-1.19,1.19-1.19,1.18,.53,1.18,1.19Z" style="fill:#e0e0e0;"></path></g><g><rect x="357.83" y="210.25" width="35.14" height="19.47" transform="translate(-22.29 43.47) rotate(-6.44)" style="fill:#fff;"></rect><path d="M375.93,213.98c0,.67-.54,1.21-1.21,1.21s-1.21-.54-1.21-1.21,.54-1.21,1.21-1.21,1.21,.54,1.21,1.21Z" style="fill:#e0e0e0;"></path></g><path d="M346.88,221.06c0,.16-6,.28-13.41,.28s-13.41-.13-13.41-.28,6-.28,13.41-.28,13.41,.13,13.41,.28Z" style="fill:#e0e0e0;"></path><path d="M346.88,225.3c0,.16-6,.28-13.41,.28s-13.41-.13-13.41-.28,6-.28,13.41-.28,13.41,.13,13.41,.28Z" style="fill:#e0e0e0;"></path><path d="M346.88,229.55c0,.16-6,.28-13.41,.28s-13.41-.13-13.41-.28,6-.28,13.41-.28,13.41,.13,13.41,.28Z" style="fill:#e0e0e0;"></path><path d="M346.88,233.79c0,.16-6,.28-13.41,.28s-13.41-.13-13.41-.28,6-.28,13.41-.28,13.41,.13,13.41,.28Z" style="fill:#e0e0e0;"></path><path d="M346.88,238.04c0,.16-6,.29-13.41,.29s-13.41-.13-13.41-.29,6-.28,13.41-.28,13.41,.13,13.41,.28Z" style="fill:#e0e0e0;"></path><path d="M346.88,242.28c0,.16-6,.28-13.41,.28s-13.41-.13-13.41-.28,6-.28,13.41-.28,13.41,.13,13.41,.28Z" style="fill:#e0e0e0;"></path><path d="M346.88,246.53c0,.16-6,.28-13.41,.28s-13.41-.13-13.41-.28,6-.28,13.41-.28,13.41,.13,13.41,.28Z" style="fill:#e0e0e0;"></path><path d="M388.49,216.51c.02,.16-5.9,1.12-13.23,2.16-7.33,1.03-13.29,1.75-13.32,1.59-.02-.16,5.9-1.12,13.24-2.16,7.33-1.03,13.29-1.75,13.31-1.59Z" style="fill:#e0e0e0;"></path><path d="M389.03,219.17c.02,.16-5.9,1.12-13.23,2.16-7.33,1.03-13.29,1.75-13.32,1.59-.02-.16,5.9-1.12,13.24-2.16,7.33-1.03,13.29-1.75,13.31-1.59Z" style="fill:#e0e0e0;"></path><path d="M389.51,221.62c.02,.16-5.9,1.12-13.23,2.16-7.33,1.03-13.29,1.75-13.32,1.59-.02-.16,5.9-1.12,13.24-2.16,7.33-1.03,13.29-1.75,13.31-1.59Z" style="fill:#e0e0e0;"></path><path d="M387.15,144.11c0,.16-6.78,.28-15.15,.28s-15.15-.13-15.15-.28,6.78-.28,15.15-.28,15.15,.13,15.15,.28Z" style="fill:#e0e0e0;"></path><path d="M387.15,146.63c0,.16-6.78,.28-15.15,.28s-15.15-.13-15.15-.28,6.78-.28,15.15-.28,15.15,.13,15.15,.28Z" style="fill:#e0e0e0;"></path><path d="M387.15,149.16c0,.16-6.78,.28-15.15,.28s-15.15-.13-15.15-.28,6.78-.28,15.15-.28,15.15,.13,15.15,.28Z" style="fill:#e0e0e0;"></path><path d="M387.15,151.68c0,.16-6.78,.28-15.15,.28s-15.15-.13-15.15-.28,6.78-.28,15.15-.28,15.15,.13,15.15,.28Z" style="fill:#e0e0e0;"></path><path d="M387.15,154.2c0,.16-6.78,.28-15.15,.28s-15.15-.13-15.15-.28,6.78-.28,15.15-.28,15.15,.13,15.15,.28Z" style="fill:#e0e0e0;"></path><path d="M387.15,156.73c0,.16-6.78,.28-15.15,.28s-15.15-.13-15.15-.28,6.78-.28,15.15-.28,15.15,.13,15.15,.28Z" style="fill:#e0e0e0;"></path><path d="M387.15,159.25c0,.16-6.78,.28-15.15,.28s-15.15-.13-15.15-.28,6.78-.28,15.15-.28,15.15,.13,15.15,.28Z" style="fill:#e0e0e0;"></path><path d="M387.15,166.74c0,.16-6.78,.28-15.15,.28s-15.15-.13-15.15-.28,6.78-.28,15.15-.28,15.15,.13,15.15,.28Z" style="fill:#e0e0e0;"></path><path d="M387.36,169.41c0,.16-6.78,.28-15.15,.28s-15.15-.13-15.15-.28,6.78-.28,15.15-.28,15.15,.13,15.15,.28Z" style="fill:#e0e0e0;"></path><path d="M387.57,172.07c0,.16-6.78,.28-15.15,.28s-15.15-.13-15.15-.28,6.78-.28,15.15-.28,15.15,.13,15.15,.28Z" style="fill:#e0e0e0;"></path><path d="M387.79,174.74c0,.16-6.78,.28-15.15,.28s-15.15-.13-15.15-.28,6.78-.28,15.15-.28,15.15,.13,15.15,.28Z" style="fill:#e0e0e0;"></path><path d="M388,177.4c0,.16-6.78,.28-15.15,.28s-15.15-.13-15.15-.28,6.78-.28,15.15-.28,15.15,.13,15.15,.28Z" style="fill:#e0e0e0;"></path><path d="M388.21,180.07c0,.16-6.78,.28-15.15,.28s-15.15-.13-15.15-.28,6.78-.28,15.15-.28,15.15,.13,15.15,.28Z" style="fill:#e0e0e0;"></path></g><g><path d="M657.86,469.44c-1.32-1.13-4.26-4.72-1.99-8.89,.83-1.53,2.6-2.28,4.2-2.96,1.6-.67,3.28-1.26,4.6-2.38,2.5-2.12,3.18-5.65,4.84-8.48,1.9-3.25,5.45-5.69,9.2-5.52,4.3,.2,7.88,3.7,9.5,7.7,1.62,4,1.68,8.44,1.71,12.76,.02,2.39-.09,5.08-1.84,6.69-1.62,1.49-4.05,1.51-6.24,1.44-7.82-.24-15.65-.48-23.47-.72" style="fill:#f5f5f5;"></path><path d="M702.75,404.9h-61.73l11.12,66.31c.49,2.9,2.58,5.13,5.27,5.9,.07,.02,.14,.04,.22,.06,.18,.05,.36,.11,.55,.14,.41,.08,.83,.13,1.26,.14v.06l.31-.05h27.51c.52,0,1.02-.05,1.51-.15,3.25-.5,5.85-3.11,6.25-6.48l5.36-45.69,.24-1.82h-.03l2.12-18.09,.04-.34Zm-11.65,42.29h-6.33l.64-19.24h7.34l-1.64,19.24Zm2.26-19.24h6.07l-2.26,19.24h-5.45l1.64-19.24Zm-18.1,40.58l-.39-16.72h9.12l-.56,16.72h-8.18Zm-9.86-16.72h8.86l.38,16.72h-7.95l-1.3-16.72Zm.68,16.72h-7.43c-.71-4.51-1.63-10.38-2.62-16.72h8.75l1.3,16.72Zm-1.04-21.33l-1.5-19.24h10.17l.44,19.24h-9.12Zm9.73,0l-.44-19.24h10.46l-.64,19.24h-9.38Zm-.55-23.86l-.41-17.82h11.73l-.59,17.82h-10.72Zm-.61,0h-10.42l-1.38-17.82h11.4l.41,17.82Zm-11.04,0h-11.03c-.39-2.46-.76-4.79-1.09-6.89-1.15-7.21-1.58-9.91-1.82-10.93h12.56l1.39,17.82Zm.36,4.61l1.5,19.24h-9.12c-.31-1.95-.62-3.93-.93-5.9-.71-4.54-1.43-9.08-2.1-13.34h10.65Zm-8.24,19.24h-5.96l-3.23-19.24h6.15c.94,5.95,1.98,12.57,3.03,19.24Zm.72,4.61c.91,5.78,1.8,11.49,2.62,16.72h-5.72l-2.8-16.72h5.91Zm28.65,16.72l.56-16.72h6.09l-1.43,16.72h-5.22Zm1.5-45.19l.59-17.82h8.51l-1.52,17.82h-7.58Zm-37.51-17.82c.24,1.29,1.37,8.3,2.88,17.82h-6.2l-2.99-17.82h6.3Zm46.62,63.01h-4.77l1.43-16.72h5.3l-1.96,16.72Zm5.3-45.19h-6.21l1.52-17.82h6.78l-2.09,17.82Z" style="fill:#e0e0e0;"></path></g><g><rect x="591.12" y="73.03" width="103.23" height="170.87" style="fill:#e0e0e0;"></rect><rect x="587.69" y="73.03" width="103.23" height="170.87" style="fill:#ebebeb;"></rect><rect x="592.09" y="76.49" width="94.44" height="163.94" style="fill:#fff;"></rect><g><rect x="610.07" y="97.8" width="58.07" height="121.34" style="fill:#ebebeb;"></rect><path d="M610.07,176.2c-.13-11.33,10.06-22.4,21.28-23.98,5.35-.75,11.04,.31,16.04-1.74,8.93-3.66,11.77-15.52,20.75-19.04l.41,87.7h-58.48v-42.94Z" style="fill:#e0e0e0;"></path></g></g><g><rect x="672.04" y="311.16" width="41.46" height="10.6" style="fill:#ebebeb;"></rect><path d="M695.97,332.92s0-.07-.01-.19c0-.14,0-.32-.01-.54,0-.5-.02-1.19-.03-2.09-.02-1.83-.04-4.46-.07-7.78l.13,.12c-9.47,.02-24.52,.05-41.46,.08,.09-.09-.21,.2,.21-.2h0v1.36c0,.45,0,.9,0,1.35,0,.9,0,1.79,0,2.68,0,1.77,0,3.51,0,5.21l-.21-.2c11.81,.04,22.14,.07,29.54,.09,3.69,.02,6.65,.04,8.72,.06,1.01,.01,1.79,.02,2.36,.03,.25,0,.46,0,.62,.01,.14,0,.21,0,.22,.01s-.06,0-.19,.01h-.59c-.55,.02-1.33,.03-2.31,.04-2.06,.01-5,.03-8.67,.06-7.45,.02-17.83,.05-29.69,.09h-.21v-.2c0-1.7,0-3.44,0-5.21,0-.88,0-1.78,0-2.68,0-.45,0-.9,0-1.35v-1.34h0v-.02h0c.42-.41,.12-.12,.21-.21,16.93,.03,31.99,.06,41.46,.08h.13v.12c-.03,3.35-.06,6-.07,7.85-.01,.88-.02,1.57-.03,2.06,0,.21,0,.39-.01,.52,0,.12,0,.17-.01,.17Z" style="fill:#e0e0e0;"></path></g><g><rect x="290.78" y="345.09" width="41.46" height="10.6" style="fill:#ebebeb;"></rect><path d="M314.7,366.86s0-.07-.01-.19c0-.14,0-.32-.01-.54,0-.5-.02-1.19-.03-2.09-.02-1.83-.04-4.46-.07-7.78l.13,.12c-9.47,.02-24.52,.05-41.46,.08,.09-.09-.21,.2,.21-.2h0v1.36c0,.45,0,.9,0,1.35,0,.9,0,1.79,0,2.68,0,1.77,0,3.51,0,5.21l-.21-.2c11.81,.04,22.14,.07,29.54,.09,3.69,.02,6.65,.04,8.72,.06,1.01,.01,1.79,.02,2.36,.03,.25,0,.46,0,.62,.01,.14,0,.21,0,.22,.01,0,0-.06,0-.19,.01-.15,0-.35,0-.59,.01-.55,0-1.33,.02-2.31,.03-2.06,.01-5,.03-8.67,.06-7.45,.02-17.83,.05-29.69,.09h-.21v-.2c0-1.7,0-3.44,0-5.21,0-.88,0-1.78,0-2.68,0-.45,0-.9,0-1.35v-1.34h0v-.02h0c.42-.41,.12-.12,.21-.21,16.93,.03,31.99,.06,41.46,.08h.13v.12c-.03,3.35-.06,6-.07,7.85-.01,.88-.02,1.57-.03,2.06,0,.21,0,.39-.01,.52,0,.12,0,.17-.01,.17Z" style="fill:#e0e0e0;"></path></g><g><rect x="396.32" y="419.85" width="41.46" height="10.6" style="fill:#ebebeb;"></rect><path d="M420.25,441.61s0-.07-.01-.19c0-.14,0-.32-.01-.54,0-.5-.02-1.19-.03-2.09-.02-1.83-.04-4.46-.07-7.78l.13,.12c-9.47,.02-24.52,.05-41.46,.08,.09-.09-.21,.2,.21-.2h0v1.36c0,.45,0,.9,0,1.35,0,.9,0,1.79,0,2.68,0,1.77,0,3.51,0,5.21l-.21-.2c11.81,.04,22.14,.07,29.54,.09,3.69,.02,6.65,.04,8.72,.06,1.01,.01,1.79,.02,2.36,.03,.25,0,.46,0,.62,.01,.14,0,.21,0,.22,.01s-.06,0-.19,.01c-.15,0-.35,0-.59,.01-.55,0-1.33,.02-2.31,.03-2.06,.01-5,.03-8.67,.06-7.44,.02-17.83,.05-29.69,.09h-.21v-.2c0-1.7,0-3.44,0-5.21,0-.88,0-1.78,0-2.68,0-.45,0-.9,0-1.35v-1.34h0v-.02h0c.42-.41,.12-.12,.21-.21,16.93,.03,31.99,.06,41.46,.08h.13v.12c-.03,3.35-.06,6-.07,7.85-.01,.88-.02,1.57-.03,2.06,0,.21,0,.39-.01,.52,0,.12,0,.17-.01,.17Z" style="fill:#e0e0e0;"></path></g><g><rect x="288.14" y="52.68" width="41.46" height="10.6" style="fill:#ebebeb;"></rect><path d="M312.07,74.45s0-.07-.01-.19c0-.14,0-.32-.01-.54,0-.5-.02-1.19-.03-2.09-.02-1.83-.04-4.46-.07-7.78l.13,.12c-9.47,.02-24.52,.05-41.46,.08,.09-.09-.21,.2,.21-.2h0v1.36c0,.45,0,.9,0,1.35,0,.9,0,1.79,0,2.68,0,1.77,0,3.51,0,5.21l-.21-.2c11.81,.04,22.14,.07,29.54,.09,3.69,.02,6.65,.04,8.72,.06,1.01,.01,1.79,.02,2.36,.03,.25,0,.46,0,.62,.01,.14,0,.21,0,.22,.01,0,0-.06,0-.19,.01-.15,0-.35,0-.59,.01-.55,0-1.33,.02-2.31,.03-2.06,.01-5,.03-8.67,.06-7.45,.02-17.83,.05-29.69,.09h-.21v-.2c0-1.7,0-3.44,0-5.21,0-.88,0-1.78,0-2.68,0-.45,0-.9,0-1.35v-1.34h0v-.02h0c.42-.41,.12-.12,.21-.21,16.93,.03,31.99,.06,41.46,.08h.13v.12c-.03,3.35-.06,6-.07,7.85-.01,.88-.02,1.57-.03,2.06,0,.21,0,.39-.01,.52,0,.12,0,.17-.01,.17Z" style="fill:#e0e0e0;"></path></g><g><rect x="58.47" y="296.89" width="41.46" height="10.6" style="fill:#ebebeb;"></rect><path d="M82.4,318.66s0-.07-.01-.19c0-.14,0-.32-.01-.54,0-.5-.02-1.19-.03-2.09-.02-1.83-.04-4.46-.07-7.78l.13,.12c-9.47,.02-24.52,.05-41.46,.08,.09-.09-.21,.2,.21-.2h0v1.36c0,.45,0,.9,0,1.35,0,.9,0,1.79,0,2.68,0,1.77,0,3.51,0,5.21l-.21-.2c11.81,.04,22.14,.07,29.54,.09,3.69,.02,6.65,.04,8.72,.06,1.01,.01,1.79,.02,2.36,.03,.25,0,.46,0,.62,.01,.14,0,.21,0,.22,.01,0,0-.06,0-.19,.01-.15,0-.35,0-.59,.01-.55,0-1.33,.02-2.31,.03-2.06,.01-5,.03-8.67,.06-7.45,.02-17.83,.05-29.69,.09h-.21v-.2c0-1.7,0-3.44,0-5.21,0-.88,0-1.78,0-2.68,0-.45,0-.9,0-1.35v-1.34h0v-.02h0c.42-.41,.12-.12,.21-.21,16.94,.03,31.99,.06,41.46,.08h.13v.12c-.03,3.35-.06,6-.07,7.85-.01,.88-.02,1.57-.03,2.06,0,.21,0,.39-.01,.52,0,.12,0,.17-.01,.17Z" style="fill:#e0e0e0;"></path></g><g><path d="M569.39,59.9s0-.08-.01-.22c0-.16,0-.37-.01-.62,0-.57-.02-1.37-.03-2.39-.02-2.09-.04-5.11-.08-8.9l.14,.14c-10.4,.02-26.95,.05-45.57,.09,.1-.1-.23,.23,.23-.23h0v1.56c0,.52,0,1.03,0,1.55,0,1.03,0,2.05,0,3.06,0,2.03,0,4.02,0,5.97l-.23-.23c12.98,.04,24.33,.08,32.47,.1,4.06,.03,7.31,.05,9.59,.07,1.11,.01,1.97,.02,2.59,.03,.28,0,.5,.01,.68,.01,.15,0,.24,.01,.24,.01s-.07,0-.21,.01c-.17,0-.38,0-.65,.01-.61,0-1.46,.02-2.54,.03-2.26,.02-5.5,.04-9.53,.07-8.18,.03-19.59,.06-32.63,.1h-.23v-.23c0-1.95,0-3.94,0-5.97v-3.06c0-.51,0-1.03,0-1.55v-1.53h0v-.02h0c.46-.47,.13-.13,.23-.24,18.61,.04,35.16,.07,45.57,.09h.14v.14c-.03,3.83-.06,6.87-.08,8.99-.01,1.01-.03,1.79-.03,2.36,0,.25-.01,.44-.01,.6,0,.13,0,.2-.01,.19Z" style="fill:#e0e0e0;"></path><path d="M575.57,47.77s-.01-.08-.02-.23c0-.17-.01-.39-.02-.64-.01-.6-.02-1.41-.04-2.43-.02-2.13-.05-5.13-.09-8.83l.17,.17c-7.09,.02-16.74,.04-27.38,.07-.21,.21,.28-.28,.23-.23h0v1.59c0,.53,0,1.05,0,1.57,0,1.04,0,2.07,0,3.09,0,2.03,0,4,0,5.88l-.22-.22c7.9,.04,14.71,.08,19.59,.11,2.41,.03,4.33,.05,5.71,.06,.64,.01,1.15,.02,1.54,.03,.35,0,.54,.02,.55,.03,0,0-.16,.02-.5,.03-.38,0-.87,.02-1.49,.03-1.36,.01-3.27,.04-5.65,.06-4.91,.03-11.77,.06-19.73,.11h-.22v-.22c0-1.89,0-3.85,0-5.88,0-1.02,0-2.05,0-3.09,0-.52,0-1.05,0-1.57v-1.57h0v-.02h0c-.05,.05,.44-.45,.23-.24,10.64,.03,20.28,.05,27.38,.07h.17v.17c-.04,3.74-.07,6.78-.09,8.93-.02,1.01-.03,1.81-.04,2.39-.01,.54-.02,.82-.04,.81Z" style="fill:#e0e0e0;"></path></g><g><path d="M102.25,81.9s0-.08-.01-.22c0-.16,0-.37-.01-.62,0-.57-.02-1.37-.03-2.39-.02-2.09-.04-5.11-.08-8.9l.14,.14c-10.4,.02-26.95,.05-45.57,.09,.1-.1-.23,.23,.23-.23h0v1.56c0,.52,0,1.03,0,1.55,0,1.03,0,2.05,0,3.06,0,2.03,0,4.02,0,5.97l-.23-.23c12.98,.04,24.33,.08,32.47,.1,4.06,.03,7.31,.05,9.59,.07,1.11,.01,1.97,.02,2.59,.03,.28,0,.5,.01,.68,.01,.15,0,.24,0,.24,.01s-.07,0-.21,.01c-.17,0-.38,0-.65,.01-.61,0-1.46,.02-2.54,.03-2.26,.02-5.5,.04-9.53,.07-8.18,.03-19.59,.06-32.63,.1h-.23v-.23c0-1.95,0-3.94,0-5.97v-3.06c0-.51,0-1.03,0-1.55v-1.53h0v-.02h0c.46-.47,.13-.13,.23-.24,18.61,.04,35.16,.07,45.57,.09h.14v.14c-.03,3.83-.06,6.87-.08,8.99-.01,1.01-.03,1.79-.03,2.36,0,.25-.01,.44-.01,.6,0,.13,0,.2-.01,.19Z" style="fill:#e0e0e0;"></path><path d="M108.43,69.76s-.01-.08-.02-.23c0-.17-.01-.39-.02-.64-.01-.6-.02-1.41-.04-2.43-.02-2.13-.05-5.13-.09-8.83l.17,.17c-7.09,.02-16.74,.04-27.38,.07-.21,.21,.28-.28,.23-.23h0v1.59c0,.53,0,1.05,0,1.57,0,1.04,0,2.07,0,3.09,0,2.03,0,4,0,5.88l-.22-.22c7.9,.04,14.71,.08,19.59,.11,2.41,.03,4.33,.05,5.71,.06,.64,.01,1.15,.02,1.54,.03,.35,0,.54,.02,.55,.03,0,0-.16,.02-.5,.03-.38,0-.87,.02-1.49,.03-1.36,.01-3.27,.04-5.65,.06-4.91,.03-11.77,.06-19.73,.11h-.22v-.22c0-1.89,0-3.85,0-5.88,0-1.02,0-2.05,0-3.09,0-.52,0-1.05,0-1.57v-1.57h0v-.02h0c-.05,.05,.44-.45,.23-.24,10.64,.03,20.28,.05,27.38,.07h.17v.17c-.04,3.74-.07,6.78-.09,8.93-.02,1.01-.03,1.81-.04,2.39-.01,.54-.02,.82-.04,.81Z" style="fill:#e0e0e0;"></path></g><g><path d="M247.1,173.52s0-.08-.01-.22c0-.16,0-.37-.01-.62,0-.57-.02-1.37-.03-2.39-.02-2.09-.04-5.11-.08-8.9l.14,.14c-10.4,.02-26.95,.05-45.57,.09,.1-.1-.23,.23,.23-.23h0v1.56c0,.52,0,1.03,0,1.55,0,1.03,0,2.05,0,3.06,0,2.03,0,4.02,0,5.97l-.23-.23c12.98,.04,24.33,.08,32.47,.1,4.06,.03,7.31,.05,9.59,.07,1.11,.01,1.97,.02,2.59,.03,.28,0,.5,.01,.68,.01,.15,0,.24,.01,.24,.01s-.07,0-.21,.01c-.17,0-.38,0-.65,.01-.61,0-1.46,.02-2.54,.03-2.26,.02-5.5,.04-9.53,.07-8.18,.03-19.59,.06-32.63,.1h-.23v-.23c0-1.95,0-3.94,0-5.97v-3.06c0-.51,0-1.03,0-1.55v-1.53h0v-.02h0c.46-.47,.13-.13,.23-.24,18.61,.04,35.16,.07,45.57,.09h.14v.14c-.03,3.83-.06,6.87-.08,8.99-.01,1.01-.03,1.79-.03,2.36,0,.25-.01,.44-.01,.6,0,.13,0,.2-.01,.19Z" style="fill:#e0e0e0;"></path><path d="M253.28,161.39s-.01-.08-.02-.23c0-.17-.01-.39-.02-.64-.01-.6-.02-1.41-.04-2.43-.02-2.13-.05-5.13-.09-8.83l.17,.17c-7.09,.02-16.74,.04-27.38,.07-.21,.21,.28-.28,.23-.23h0v1.59c0,.53,0,1.05,0,1.57,0,1.04,0,2.07,0,3.09,0,2.03,0,4,0,5.88l-.22-.22c7.9,.04,14.71,.08,19.59,.11,2.41,.03,4.33,.05,5.71,.06,.64,.01,1.15,.02,1.54,.03,.35,0,.54,.02,.55,.03,0,0-.16,.02-.5,.03-.38,0-.87,.02-1.49,.03-1.36,.01-3.27,.04-5.65,.06-4.91,.03-11.77,.06-19.73,.11h-.22v-.22c0-1.89,0-3.85,0-5.88,0-1.02,0-2.05,0-3.09,0-.52,0-1.05,0-1.57v-1.57h0v-.02h0c-.05,.05,.44-.45,.23-.24,10.64,.03,20.28,.05,27.38,.07h.17v.17c-.04,3.74-.07,6.78-.09,8.93-.02,1.01-.03,1.81-.04,2.39-.01,.54-.02,.82-.04,.81Z" style="fill:#e0e0e0;"></path></g><g><path d="M154.9,429.6s0-.08-.01-.22c0-.16,0-.37-.01-.62,0-.57-.02-1.37-.03-2.39-.02-2.09-.04-5.11-.08-8.9l.14,.14c-10.4,.02-26.95,.05-45.57,.09,.1-.1-.23,.23,.23-.23h0v1.56c0,.52,0,1.03,0,1.55,0,1.03,0,2.05,0,3.06,0,2.03,0,4.02,0,5.97l-.23-.23c12.98,.04,24.33,.08,32.47,.1,4.06,.03,7.31,.05,9.59,.07,1.11,.01,1.97,.02,2.59,.03,.28,0,.5,.01,.68,.01,.15,0,.24,0,.24,.01s-.07,0-.21,.01c-.17,0-.38,0-.65,.01-.61,0-1.46,.02-2.54,.03-2.26,.02-5.5,.04-9.53,.07-8.18,.03-19.59,.06-32.63,.1h-.23v-.23c0-1.95,0-3.94,0-5.97v-3.06c0-.51,0-1.03,0-1.55v-1.53h0v-.02h0c.46-.47,.13-.13,.23-.24,18.61,.04,35.16,.07,45.57,.09h.14v.14c-.03,3.83-.06,6.87-.08,8.99-.01,1.01-.03,1.79-.03,2.36,0,.25-.01,.44-.01,.6,0,.13,0,.2-.01,.19Z" style="fill:#e0e0e0;"></path><path d="M161.08,417.47s-.01-.08-.02-.23c0-.17-.01-.39-.02-.64-.01-.6-.02-1.41-.04-2.43-.02-2.13-.05-5.13-.09-8.83l.17,.17c-7.09,.02-16.74,.04-27.38,.07-.21,.21,.28-.28,.23-.23h0v1.59c0,.53,0,1.05,0,1.57,0,1.04,0,2.07,0,3.09,0,2.03,0,4,0,5.88l-.22-.22c7.9,.04,14.71,.08,19.59,.11,2.41,.03,4.33,.05,5.71,.06,.64,.01,1.15,.02,1.54,.03,.35,0,.54,.02,.55,.03,0,0-.16,.02-.5,.03-.38,0-.87,.02-1.49,.03-1.36,.01-3.27,.04-5.65,.06-4.91,.03-11.77,.06-19.73,.11h-.22v-.22c0-1.89,0-3.85,0-5.88,0-1.02,0-2.05,0-3.09,0-.52,0-1.05,0-1.57v-1.57h0v-.02h0c-.05,.05,.44-.45,.23-.24,10.64,.03,20.28,.05,27.38,.07h.17v.17c-.04,3.74-.07,6.78-.09,8.93-.02,1.01-.03,1.81-.04,2.39-.01,.54-.02,.82-.04,.81Z" style="fill:#e0e0e0;"></path></g><g><path d="M456.56,352.22s0-.08-.01-.22c0-.16,0-.37-.01-.62,0-.57-.02-1.37-.03-2.39-.02-2.09-.04-5.11-.08-8.9l.14,.14c-10.4,.02-26.95,.05-45.57,.09,.1-.1-.23,.23,.23-.23h0v1.56c0,.52,0,1.03,0,1.55,0,1.03,0,2.05,0,3.06,0,2.03,0,4.02,0,5.97l-.23-.23c12.98,.04,24.33,.08,32.47,.1,4.06,.03,7.31,.05,9.59,.07,1.11,.01,1.97,.02,2.59,.03,.28,0,.5,.01,.68,.01,.15,0,.24,.01,.24,.01s-.07,0-.21,.01c-.17,0-.38,0-.65,.01-.61,0-1.46,.02-2.54,.03-2.26,.02-5.5,.04-9.53,.07-8.18,.03-19.59,.06-32.63,.1h-.23v-.23c0-1.95,0-3.94,0-5.97v-3.06c0-.51,0-1.03,0-1.55v-1.53h0v-.02h0c.46-.47,.13-.13,.23-.24,18.61,.04,35.16,.07,45.57,.09h.14v.14c-.03,3.83-.06,6.87-.08,8.99-.01,1.01-.03,1.79-.03,2.36,0,.25-.01,.44-.01,.6,0,.13,0,.2-.01,.19Z" style="fill:#e0e0e0;"></path><path d="M462.74,340.09s-.01-.08-.02-.23c0-.17-.01-.39-.02-.64-.01-.6-.02-1.41-.04-2.43-.02-2.13-.05-5.13-.09-8.83l.17,.17c-7.09,.02-16.74,.04-27.38,.07-.21,.21,.28-.28,.23-.23h0v1.59c0,.53,0,1.05,0,1.57,0,1.04,0,2.07,0,3.09,0,2.03,0,4,0,5.88l-.22-.22c7.9,.04,14.71,.08,19.59,.11,2.41,.03,4.33,.05,5.71,.06,.64,.01,1.15,.02,1.54,.03,.35,0,.54,.02,.55,.03,0,0-.16,.02-.5,.03-.38,0-.87,.02-1.49,.03-1.36,.01-3.27,.04-5.65,.06-4.91,.03-11.77,.06-19.73,.11h-.22v-.22c0-1.89,0-3.85,0-5.88,0-1.02,0-2.05,0-3.09,0-.52,0-1.05,0-1.57v-1.57h0v-.02h0c-.05,.05,.44-.45,.23-.24,10.64,.03,20.28,.05,27.38,.07h.17v.17c-.04,3.74-.07,6.78-.09,8.93-.02,1.01-.03,1.81-.04,2.39-.01,.54-.02,.82-.04,.81Z" style="fill:#e0e0e0;"></path></g></g><g id="freepik--Floor--inject-335"><path d="M697.82,477.71c0,.14-144.54,.26-322.81,.26s-322.84-.12-322.84-.26,144.51-.26,322.84-.26,322.81,.12,322.81,.26Z" style="fill:#455a64;"></path></g><g id="freepik--Plant--inject-335"><g><g><path d="M383.75,452.39s-3.7-25.44-3.39-40.24-.02-31.45-.02-31.45h1.7s-1.15,29.38,.1,47.09c1.26,17.7,4.56,24.59,4.56,24.59h-2.96" style="fill:#263238;"></path><path d="M394.77,352.08c-.34-.87-.76-1.77-1.55-2.27-1.08-.69-2.5-.4-3.71,.03-5.15,1.82-9.72,11.43-11.8,16.48l6.84,23.04c12.34-11.45,14.48-26.48,10.22-37.28Z" style="fill:#455a64;"></path><path d="M392.82,350.73s-.03,.11-.1,.3c-.09,.22-.2,.5-.33,.84-.3,.73-.72,1.78-1.22,3.09-1.01,2.62-2.29,6.28-3.44,10.4-1.14,4.12-1.93,7.92-2.41,10.68-.24,1.38-.43,2.5-.54,3.28-.06,.36-.11,.66-.15,.89-.04,.2-.06,.31-.07,.31,0,0,0-.11,.01-.32,.02-.24,.06-.53,.09-.9,.08-.78,.24-1.91,.46-3.3,.44-2.78,1.19-6.59,2.34-10.73,1.15-4.13,2.47-7.79,3.52-10.39,.53-1.3,.98-2.35,1.31-3.06,.16-.33,.28-.6,.38-.82,.09-.19,.14-.28,.15-.28Z" style="fill:#263238;"></path><path d="M381.51,394.88c-6.41-3.54-10.19-10.21-10.54-17.52-.25-5.11,1.32-10.13,3.1-14.93,.15-.42,.34-.87,.72-1.08,.54-.3,1.21-.03,1.75,.27,4.66,2.65,7.48,7.71,8.98,12.86,1,3.42,1.52,7.03,1.05,10.57-.46,3.54-2.48,7.38-5.07,9.84" style="fill:#455a64;"></path><path d="M381.51,394.88s-.02-.11-.03-.31c0-.23,0-.53-.02-.88,0-.77-.03-1.88-.1-3.25-.12-2.74-.48-6.52-1.19-10.65-.71-4.13-1.57-7.82-2.21-10.5-.31-1.31-.57-2.38-.76-3.16-.08-.35-.15-.64-.2-.86-.04-.2-.06-.3-.05-.31,0,0,.05,.1,.11,.29,.07,.22,.15,.51,.25,.85,.21,.74,.5,1.81,.85,3.14,.69,2.66,1.58,6.36,2.29,10.5,.71,4.14,1.04,7.94,1.11,10.69,.04,1.38,.04,2.49,0,3.26l-.04,.88c-.01,.2-.02,.31-.03,.31Z" style="fill:#263238;"></path><g style="opacity:.3;"><path d="M381.51,394.88c-6.41-3.54-10.19-10.21-10.54-17.52-.25-5.11,1.32-10.13,3.1-14.93,.15-.42,.34-.87,.72-1.08,.54-.3,1.21-.03,1.75,.27,4.66,2.65,7.48,7.71,8.98,12.86,1,3.42,1.52,7.03,1.05,10.57-.46,3.54-2.48,7.38-5.07,9.84"></path></g><path d="M388.74,433.8c6.31,1.39,11.5,5.84,17.59,8,4.03,1.43,8.58,1.94,11.8,4.75-.77-1.95-2.6-3.25-4.38-4.36-5.01-3.13-10.37-5.69-15.94-7.61-2.86-.99-5.97-1.81-8.89-1" style="fill:#455a64;"></path><path d="M379.62,439.42c-7.9-.13-16.22-6.85-24.09-7.26,8.23-2.66,20.02-.49,24.09,7.26" style="fill:#455a64;"></path><path d="M382.71,420.46c4.01-1.45,8.42-1.51,12.63-.86s8.28,2.01,12.33,3.35c-.41-2.74-2.63-4.8-4.71-6.63-1.57-1.37-3.15-2.75-4.95-3.81-1.8-1.05-3.86-1.76-5.94-1.68-2.51,.11-4.91,1.4-6.55,3.3-1.65,1.9-2.53,3.81-2.81,6.31" style="fill:#455a64;"></path><path d="M366.49,411.74c-4.97-4.25-12.51-3.83-19.05-3.68,10.05,4.81,20.88,11.39,29.54,18.41,.27-4.62-4.21-9.36-10.49-14.72Z" style="fill:#455a64;"></path><g style="opacity:.3;"><path d="M366.49,411.74c-4.97-4.25-12.51-3.83-19.05-3.68,10.05,4.81,20.88,11.39,29.54,18.41,.27-4.62-4.21-9.36-10.49-14.72Z"></path></g><path d="M384.94,405.88c2.5-1.67,5.03-3.26,7.65-4.45,2.62-1.19,5.06-3.08,7.59-4.45,3.28-1.78,6.12-4.24,9.13-6.44,3.01-2.2,6.32-4.19,10-4.77-3-.62-6.14-.28-9.1,.53-2.96,.81-5.77,2.07-8.56,3.33-3.88,1.75-7.83,3.54-11,6.38-3.17,2.84-6.04,5.64-5.7,9.88" style="fill:#455a64;"></path><path d="M406.19,439.42s-.09-.03-.25-.11c-.19-.1-.41-.21-.69-.36-.6-.32-1.45-.79-2.53-1.33-.53-.28-1.12-.57-1.76-.87-.63-.31-1.32-.63-2.05-.94-1.46-.62-3.09-1.27-4.87-1.7-1.77-.43-3.54-.53-5.07-.13-.77,.19-1.5,.37-2.15,.64-.65,.26-1.23,.57-1.73,.89-1.01,.64-1.72,1.31-2.18,1.8-.46,.49-.68,.79-.7,.78,0,0,.04-.09,.14-.23,.1-.15,.26-.36,.48-.62,.44-.51,1.13-1.22,2.15-1.89,.51-.34,1.09-.66,1.75-.94,.66-.29,1.4-.48,2.18-.68,1.57-.43,3.4-.34,5.19,.11,1.8,.43,3.44,1.09,4.9,1.73,.73,.32,1.42,.64,2.05,.97,.64,.31,1.23,.62,1.75,.91,1.07,.56,1.91,1.06,2.49,1.41,.27,.16,.48,.29,.66,.4,.15,.09,.23,.15,.22,.16Z" style="fill:#263238;"></path><path d="M373.73,435.5s.18,.03,.49,.14c.31,.11,.76,.3,1.29,.56,1.06,.52,2.46,1.42,3.78,2.68,1.31,1.26,2.26,2.62,2.83,3.67,.29,.52,.49,.95,.61,1.26,.12,.31,.18,.48,.16,.49-.05,.02-.34-.65-.95-1.65-.6-1-1.56-2.32-2.85-3.56-1.29-1.24-2.65-2.14-3.67-2.7-1.03-.57-1.71-.83-1.69-.88Z" style="fill:#263238;"></path><path d="M356.24,411.34s.12,.03,.34,.1c.24,.09,.56,.2,.95,.34,.42,.16,.92,.34,1.5,.55,.58,.22,1.22,.54,1.93,.85,2.84,1.29,6.63,3.46,10.29,6.55,1.8,1.57,3.43,3.16,4.8,4.72,1.36,1.56,2.51,3.03,3.4,4.31,.9,1.28,1.59,2.34,2.05,3.08,.22,.35,.4,.63,.54,.85,.12,.19,.18,.3,.18,.31,0,0-.08-.09-.22-.27-.14-.18-.34-.46-.59-.82-.5-.72-1.21-1.76-2.13-3.02-.91-1.26-2.08-2.71-3.44-4.26-1.37-1.54-2.99-3.12-4.79-4.68-3.63-3.07-7.38-5.26-10.19-6.59-.71-.33-1.33-.66-1.91-.89-.57-.23-1.06-.43-1.47-.59-.38-.16-.69-.29-.93-.39-.21-.09-.32-.14-.32-.15Z" style="fill:#263238;"></path><path d="M394.56,416.02s-.23-.01-.63-.08l-.73-.13c-.28-.05-.61-.06-.97-.09-1.42-.1-3.49,.01-5.43,1.07-.98,.5-1.8,1.16-2.47,1.83-.68,.66-1.2,1.36-1.59,1.96-.79,1.21-1.04,2.09-1.09,2.07-.02,0,.03-.23,.16-.62,.15-.38,.37-.94,.76-1.56,.37-.63,.89-1.35,1.57-2.04,.68-.7,1.52-1.39,2.52-1.9,2-1.09,4.14-1.18,5.58-1.02,.36,.05,.7,.07,.98,.14,.27,.07,.51,.13,.72,.18,.4,.1,.61,.17,.61,.19Z" style="fill:#263238;"></path><path d="M402.5,391.39s-.1,.07-.3,.18c-.23,.12-.52,.28-.88,.48-.77,.41-1.87,1.02-3.21,1.81-1.33,.8-2.91,1.78-4.58,2.98-1.67,1.2-3.46,2.59-5.11,4.28-.82,.85-1.57,1.74-2.09,2.71-.52,.99-1.01,1.95-1.47,2.88-.91,1.84-1.66,3.54-2.2,5-.54,1.46-.87,2.67-1.07,3.52-.2,.85-.28,1.32-.3,1.32,0,0,0-.12,.03-.35,.03-.23,.08-.56,.16-.99,.17-.86,.47-2.09,.99-3.56,.52-1.48,1.25-3.19,2.15-5.04,.45-.93,.94-1.89,1.46-2.89,.54-1.01,1.31-1.91,2.13-2.78,1.67-1.71,3.48-3.11,5.16-4.3,1.69-1.19,3.28-2.16,4.63-2.94,1.36-.77,2.48-1.35,3.26-1.74,.37-.18,.67-.32,.91-.43,.21-.1,.32-.14,.32-.13Z" style="fill:#263238;"></path><path d="M380.35,415.31s-.07-.23-.16-.67c-.09-.49-.21-1.1-.35-1.83-.3-1.54-.76-3.66-1.49-5.93-.73-2.28-1.61-4.26-2.26-5.68-.31-.67-.56-1.24-.77-1.69-.18-.4-.27-.63-.25-.64,.02,0,.14,.2,.35,.59,.21,.39,.5,.95,.85,1.65,.69,1.41,1.61,3.39,2.34,5.68,.74,2.29,1.17,4.43,1.42,5.98,.12,.78,.21,1.41,.26,1.84,.05,.44,.07,.68,.05,.68Z" style="fill:#263238;"></path><path d="M379.78,397.34c-.2-2.99-1.17-5.89-2.57-8.53-3.84-7.25-11.04-12.63-19.09-14.23,5.89,8.78,11.78,17.56,17.67,26.34l2.28,4.7c1.56-2.55,1.9-5.29,1.7-8.27Z" style="fill:#455a64;"></path></g><g><rect x="364.03" y="449.24" width="41.09" height="7.28" style="fill:#648a64;"></rect><polygon points="367.1 455.08 370.6 477.67 397.88 477.67 402.05 455.08 367.1 455.08" style="fill:#648a64;"></polygon><path d="M405.1,456.53c0,.08-9.27,.14-20.7,.14s-20.7-.06-20.7-.14,9.27-.14,20.7-.14,20.7,.06,20.7,.14Z" style="fill:#263238;"></path></g></g></g><g id="freepik--Speech_Bubble--inject-335"><g><g><path d="M208.16,234.31l-6.63-1.15c-2.84,2.58-6.42,4.43-10.47,5.19-11.66,2.18-22.87-5.5-25.05-17.16-2.18-11.66,5.5-22.87,17.16-25.05,11.66-2.18,22.87,5.5,25.05,17.16,.91,4.87,.1,9.65-2,13.74h0l1.94,7.27Z" style="fill:#fff;"></path><path d="M208.16,234.31s-.06-.17-.15-.49c-.1-.34-.23-.8-.4-1.4-.35-1.24-.85-3.04-1.5-5.37l.18,.04h0l-.53,.6,.36-.71c1.25-2.5,2.43-6.03,2.3-10.3-.05-2.12-.47-4.4-1.31-6.68-.83-2.28-2.1-4.56-3.87-6.6-3.48-4.1-9.09-7.17-15.4-7.38-6.26-.28-13.04,2.57-17.31,7.99-2.16,2.76-3.69,5.97-4.27,9.3-.62,3.32-.43,6.69,.43,9.76,.85,3.09,2.44,5.84,4.39,8.09,1.96,2.25,4.31,4,6.77,5.2,4.95,2.4,10.19,2.61,14.31,1.58,4.17-1,7.26-3.04,9.3-4.87l.04-.03h.05c2.12,.41,3.75,.71,4.89,.92,.54,.1,.97,.19,1.28,.25,.29,.06,.45,.09,.45,.09,0,0-.13-.01-.41-.06l-1.26-.2c-1.16-.19-2.83-.46-4.98-.8l.09-.02c-2.03,1.87-5.14,3.98-9.36,5.02-4.17,1.07-9.51,.9-14.56-1.53-2.51-1.21-4.92-2.98-6.92-5.27-2-2.29-3.62-5.1-4.5-8.26-.89-3.14-1.09-6.59-.46-9.98,.59-3.4,2.15-6.69,4.36-9.51,4.37-5.55,11.31-8.45,17.71-8.15,3.2,.12,6.27,.95,8.94,2.3,2.68,1.34,4.96,3.19,6.75,5.28,1.79,2.09,3.08,4.42,3.91,6.74,.84,2.32,1.25,4.64,1.28,6.8,.1,4.33-1.13,7.9-2.43,10.41l-.17-.12h0l.13-.15,.05,.19c.6,2.38,1.07,4.21,1.39,5.47l.34,1.38c.08,.31,.11,.46,.1,.45Z" style="fill:#263238;"></path></g><g><path d="M189.75,208.49l-.96,10.99c-.08,.9-.81,1.6-1.72,1.63h0c-.95,.03-1.76-.68-1.84-1.63l-.96-11.09c-.07-.84,.61-1.55,1.45-1.52l2.68,.1c.8,.03,1.41,.72,1.34,1.52Z" style="fill:#648a64;"></path><path d="M184.57,227.25c.43,1.42,1.94,2.22,3.36,1.78,1.42-.43,2.22-1.94,1.78-3.36-.43-1.42-1.94-2.22-3.36-1.78-1.42,.43-2.22,1.94-1.78,3.36Z" style="fill:#648a64;"></path></g></g></g><g id="freepik--Character_2--inject-335"><g><g><path d="M341.35,219.82c.28,.63,5.92,9.54,10.73,11.9,4.81,2.36,11.5,6.55,14.63,13.05,3.13,6.49,5.01,11.74,7.73,11.42,2.72-.31,.32,22.12-4.85,22.2-5.17,.08-15.06-3.41-20.5-7.24s-9.53-6.73-12.85-10.71c-3.32-3.98-1.67-6.74-1.67-6.74,0,0-3.75-3.12-3.28-6.26,.47-3.14,.47-3.17,.47-3.17v.03c-2.06-1.84-3.84-4.84,.52-7.42,0,0-6.31-3.46-4.76-6.6,1.54-3.14,5.92-2.02,5.92-2.02l4.05-2.85s-1.44-1.63,.03-4.77c1.47-3.14,3.83-.81,3.83-.81Z" style="fill:#ffbf9d;"></path><polygon points="378.01 254.75 373.35 251.79 360.64 281.93 366.17 284.93 378.01 254.75" style="fill:#e0e0e0;"></polygon><path d="M361.88,265.75s-.32-.04-.86-.25c-.54-.2-1.3-.58-2.15-1.18-1.72-1.17-3.7-3.37-5.04-6.24-1.34-2.88-1.91-5.69-2.28-7.7-.35-2.02-.49-3.28-.42-3.29,.08-.01,.34,1.23,.78,3.22,.46,1.98,1.09,4.75,2.39,7.55,1.3,2.8,3.17,4.96,4.79,6.17,1.61,1.23,2.83,1.63,2.79,1.72Z" style="fill:#ff9a6c;"></path></g><g><path d="M610.28,384.23l-5.97-44.41-127.4,10.24s-5.62,21.75-3.58,48.25c.26,3.35,4.2,37.12,9.29,79.41h62.25l-2.57-52.1,3.83,.83s5.44,24.3,11.25,51l62.97,.27-10.06-93.49Z" style="fill:#263238;"></path><path d="M549.66,398.42c.03,.06-.66,.46-1.95,1.1-1.3,.61-3.2,1.54-5.79,2.02-1.29,.24-2.76,.3-4.3,.03-1.53-.27-3.17-.92-4.5-2.16-1.33-1.24-2.18-2.97-2.73-4.77-.55-1.81-.87-3.7-1.25-5.62-1.49-7.69-2.5-14.72-3.09-19.82-.3-2.55-.49-4.62-.6-6.05-.1-1.43-.13-2.23-.06-2.23,.07,0,.22,.77,.44,2.19,.25,1.62,.55,3.63,.91,6,.76,5.06,1.88,12.05,3.36,19.72,.75,3.79,1.27,7.65,3.64,9.92,2.37,2.22,5.66,2.45,8.07,2.1,2.48-.37,4.41-1.19,5.74-1.69,1.33-.53,2.07-.81,2.1-.75Z" style="fill:#455a64;"></path><path d="M535.6,362.26s.3-.24,.96-.28c.65-.05,1.64,.15,2.61,.84,.93,.69,1.93,1.92,1.97,3.61,.08,1.71-1.25,3.39-2.99,4.01-1.72,.67-3.83,.28-4.89-1.05-1.08-1.3-1.14-2.88-.89-4.01,.28-1.16,.89-1.96,1.42-2.35,.52-.4,.89-.46,.91-.42,.13,.13-1.31,.78-1.64,2.9-.14,1,.02,2.32,.89,3.28,.83,.98,2.44,1.27,3.86,.73,1.43-.53,2.45-1.8,2.43-3.09,.02-1.29-.72-2.4-1.49-3.05-1.64-1.38-3.15-.93-3.14-1.11Z" style="fill:#455a64;"></path></g><g><g><path d="M535.31,157.68l-13.53-79.55c-2.72-19.9-16.57-34.9-36.38-31.63l-1.81,.41c-18.25,4.12-30.29,21.56-27.65,40.08,2.45,17.23,5.39,36.24,7.55,45.3,4.47,18.75,23.94,17.43,23.94,17.43,.04,0,2.22,11.5,3.23,17.07l-2.08,13.81,14.89-6.64,31.85-16.27Z" style="fill:#ffbf9d;"></path><path d="M487.42,149.71s12.01-1.98,22.84-12.76c0,0-2.7,15.46-21.84,18l-1-5.24Z" style="fill:#ff9a6c;"></path><path d="M465.35,102.84c.27,1.43,1.7,2.38,3.2,2.12,1.49-.25,2.49-1.62,2.22-3.05-.27-1.43-1.7-2.38-3.2-2.13-1.5,.25-2.49,1.62-2.22,3.05Z" style="fill:#263238;"></path><path d="M461.81,94.38c.41,.27,2.11-1.69,5-2.33,2.88-.69,5.33,.32,5.57-.1,.12-.19-.36-.75-1.44-1.21-1.06-.46-2.76-.77-4.55-.35-1.8,.42-3.16,1.42-3.88,2.29-.73,.88-.89,1.58-.69,1.7Z" style="fill:#263238;"></path><path d="M490.29,98.85c.42,.26,2.04-1.77,4.9-2.52,2.85-.79,5.34,.12,5.56-.32,.11-.2-.39-.73-1.48-1.15-1.08-.42-2.78-.66-4.56-.18-1.78,.49-3.1,1.54-3.79,2.44-.7,.91-.83,1.62-.63,1.73Z" style="fill:#263238;"></path><path d="M484.92,113.2c-.02-.17-1.89-.07-4.88,.21-.76,.09-1.49,.1-1.72-.37-.29-.49-.16-1.36,0-2.3,.29-1.94,.59-3.98,.91-6.11,1.23-8.68,1.93-15.75,1.58-15.8-.35-.05-1.63,6.95-2.85,15.63-.28,2.14-.56,4.17-.81,6.12-.09,.9-.35,1.96,.27,2.98,.32,.51,.95,.78,1.46,.8,.51,.04,.92-.05,1.29-.11,2.96-.5,4.78-.9,4.76-1.07Z" style="fill:#263238;"></path><path d="M487.5,92.15c.58,.63,3.16-.85,6.54-1.78,3.35-1.01,6.33-1.13,6.48-1.98,.06-.4-.68-.91-2.03-1.2-1.33-.29-3.27-.29-5.29,.29-2.01,.58-3.65,1.62-4.63,2.58-.98,.96-1.34,1.79-1.07,2.1Z" style="fill:#263238;"></path><path d="M459.61,85.78c.74,.53,2.96-.65,5.79-1.28,2.81-.71,5.33-.66,5.74-1.46,.17-.38-.34-.96-1.53-1.37-1.16-.4-3-.55-4.94-.09-1.94,.46-3.5,1.41-4.35,2.29-.86,.89-1.05,1.63-.71,1.9Z" style="fill:#263238;"></path><path d="M523.39,92.39c.29-.21,12.05-6.73,14.54,6.21,2.49,12.94-11.02,12.77-11.11,12.41-.09-.37-3.43-18.62-3.43-18.62Z" style="fill:#ffbf9d;"></path><path d="M529.83,105.34c.05-.05,.26,.11,.67,.22,.4,.1,1.07,.09,1.69-.29,1.27-.76,2-3.16,1.62-5.5-.19-1.18-.66-2.26-1.25-3.11-.58-.87-1.32-1.41-2.03-1.4-.72-.03-1.12,.48-1.21,.87-.1,.4,.03,.64-.04,.67-.03,.04-.32-.16-.32-.72,0-.27,.1-.6,.35-.91,.26-.31,.69-.53,1.18-.57,1.01-.12,2.09,.62,2.74,1.55,.71,.93,1.26,2.13,1.48,3.46,.42,2.62-.45,5.32-2.21,6.22-.87,.41-1.68,.28-2.13,.05-.46-.24-.59-.52-.55-.55Z" style="fill:#ff9a6c;"></path></g><g><path d="M533.85,61.77c1.4-.54,2.69-1.38,3.73-2.47,.39-.41,.77-.96,.6-1.5-.17-.55-.79-.78-1.33-.97-3.06-1.07-5.81-2.92-8.02-5.27-.13-.27-.26-.54-.39-.8-2.47-4.82-6.35-9.56-11.7-10.37l-.1,.07c-4.85-.93-10.4,.12-13.49,3.96-2.23-6.57-9.18-10.76-16.1-11.21-6.92-.45-17.29,2.64-23.11,6.41-3.97,2.57-7.51,6.73-11.44,12.51h0c-.52,.77-1.05,1.56-1.59,2.39-.05,.07-.08,.14-.13,.21-1.23,1.15-2.89,1.88-4.64,2.41-2.82,.85-4.78,.27-7.12-1.51-.71-.54-1.61-1.22-2.4-.8-.5,.27-.7,.88-.77,1.43-.41,2.98,1.41,5.94,3.91,7.62,1.21,.81,2.55,1.37,3.96,1.77-3.3,2.57-7.17,4.41-11.26,5.28-1.64,.35-3.37,.56-4.69,1.73-.6,.53-1.03,1.27-1.09,2.07-.13,1.76,1.43,2.76,2.91,3.26,2.26,.76,4.74,.81,7.04,.18-1.02,.7-1.68,1.98-1.55,3.23,.2,1.83,1.88,3.32,3.72,3.52,1.83,.2,3.69-.78,4.77-2.28-.53,.57-.96,1.23-1.3,1.93-1.67,3.55,3.34,6.62,5.73,3.51,.01-.02,.03-.04,.04-.06,.78,.89,1.43,1.82,2.09,2.74v.02l.14,.17c.42,.57,.84,1.15,1.33,1.7v-.04l6.62,9.78c-.76-5.38-2.35-14.77-2.72-20.63,8.16-1.95,13.77-6.43,18.1-13.61,2.28-3.79,3.87-6.38,7.39-9.06,4.49-3.42,18.82-.48,24.59,.37,.91,10.53,4.06,20.86,9.22,30.09,.79,1.42,4.16,6.6,5.76,6.88,3.13,.56,1.51-3.24,3.6-4.42,1.62-.91,2.53-.7,5.95-1.43,.6-3.48-.32-12.48-.18-17.47,1.86,.19,3.77-.03,5.52-.7-.82-1.23-1.64-2.46-2.46-3.69,.82,.32,1.66,.64,2.54,.6,.87-.04,1.79-.55,2.02-1.39,.3-1.09-.59-2.11-1.35-2.96-.88-1-1.65-2.07-2.35-3.2Z" style="fill:#263238;"></path><path d="M497.6,47.74c-.03,.06,.89,.35,2.24,1.37,1.33,1.02,2.98,2.92,4.13,5.72,.58,1.39,1.08,2.97,1.42,4.72,.35,1.74,.57,3.64,.82,5.63,.26,1.99,.52,4.1,1.06,6.24,.27,1.07,.62,2.14,1.06,3.19,.45,1.03,.96,2.15,1.95,2.92,.8,.63,1.95,.75,2.85,.38,.91-.35,1.66-1.02,2.14-1.83,.94-1.66,.9-3.52,.89-5.17l-.39,.13c.93,1.3,1.87,2.58,3.07,3.52,1.19,.95,2.68,1.43,4.07,1.29,.69-.07,1.36-.31,1.89-.72,.54-.41,.88-.99,1.07-1.56,.18-.59,.21-1.2,.08-1.76-.14-.56-.46-1.05-.89-1.35l-.17,.22c1.78,1.38,3.5,1.97,4.66,2.26,.59,.14,1.05,.21,1.36,.25,.31,.03,.47,.04,.47,.02,0-.01-.16-.04-.46-.1-.3-.06-.76-.15-1.33-.31-1.14-.33-2.81-.95-4.53-2.33l-.17,.22c.77,.55,1.04,1.73,.67,2.79-.19,.52-.5,1.04-.97,1.39-.47,.36-1.08,.57-1.71,.63-1.28,.12-2.67-.34-3.79-1.24-1.14-.9-2.05-2.14-2.97-3.45l-.39-.55v.68c0,1.65,.02,3.44-.84,4.94-.43,.72-1.12,1.33-1.92,1.63-.8,.32-1.73,.22-2.42-.32-.87-.66-1.37-1.72-1.81-2.73-.44-1.03-.78-2.08-1.05-3.13-.54-2.1-.81-4.19-1.08-6.18-.26-1.99-.5-3.89-.86-5.65-.36-1.76-.89-3.36-1.49-4.77-1.2-2.83-2.93-4.75-4.32-5.74-1.4-1-2.34-1.23-2.34-1.23Z" style="fill:#455a64;"></path><path d="M442.6,77.55s.06,.04,.18,.1c.15,.07,.32,.15,.54,.25,.24,.11,.54,.24,.9,.36,.36,.12,.78,.28,1.27,.38,1.92,.49,4.9,.78,8.39-.12,3.45-.88,7.41-2.93,10.61-6.44,3.26-3.46,5.8-8.11,7.62-13.23,.93-2.56,1.6-5.13,2.41-7.54,.81-2.41,1.77-4.68,3.11-6.59,1.31-1.91,2.97-3.45,4.81-4.37,.91-.48,1.88-.73,2.81-.89,.94-.13,1.87-.12,2.73,0,1.74,.23,3.23,.88,4.41,1.61,1.18,.74,2.05,1.6,2.68,2.36,1.2,1.57,1.46,2.68,1.53,2.65,0,0-.01-.07-.05-.2-.05-.15-.12-.34-.2-.56-.19-.49-.55-1.18-1.13-2-.62-.79-1.48-1.68-2.68-2.46-1.19-.77-2.71-1.45-4.5-1.71-.89-.12-1.84-.15-2.83-.02-.97,.15-1.98,.42-2.93,.9-1.91,.94-3.63,2.52-4.99,4.47-1.38,1.94-2.37,4.26-3.19,6.68-.83,2.43-1.49,4.99-2.42,7.53-1.81,5.08-4.31,9.68-7.5,13.09-3.14,3.48-6.99,5.51-10.39,6.42-3.42,.92-6.36,.69-8.27,.26-1.93-.45-2.91-.98-2.93-.92Z" style="fill:#455a64;"></path><path d="M439.25,69.57s.26,.15,.77,.34c.5,.2,1.26,.42,2.21,.63,.95,.22,2.1,.36,3.39,.43,1.29,.04,2.71-.02,4.18-.25,1.47-.25,2.84-.63,4.04-1.08,1.2-.46,2.25-.97,3.08-1.47,.84-.5,1.48-.94,1.9-1.29,.42-.34,.64-.54,.62-.57-.05-.07-.99,.67-2.68,1.58-.84,.46-1.88,.93-3.07,1.36-1.19,.41-2.54,.78-3.97,1.02-1.44,.22-2.83,.3-4.09,.28-1.26-.04-2.4-.15-3.34-.32-1.89-.33-3.01-.74-3.04-.66Z" style="fill:#455a64;"></path></g><path d="M494.54,118.23c.06,.26-2.2,1.19-4.87,2.68-2.69,1.45-4.79,2.75-4.97,2.53-.18-.23,1.71-1.96,4.47-3.45,2.73-1.53,5.3-2.08,5.36-1.77Z" style="fill:#263238;"></path></g><g><path d="M465.23,172.9l-14.18,5.4s-2.62,9.31-2.62,16.17c0,4.24-23.66,71.8-23.66,71.8l-48.22-12.49-13.1,34.41c2.69,1.22,58.86,24.29,77.04,25.25,19,1,32.38-55.03,32.38-55.03l-7.65-85.51Z" style="fill:#263238;"></path><path d="M432.86,291.1c-.08,0-.29-1.48-.74-3.87-.45-2.39-1.18-5.66-2.28-9.19-1.1-3.53-2.35-6.65-3.34-8.87-.98-2.22-1.66-3.57-1.58-3.61,.03-.02,.23,.3,.58,.89,.34,.59,.81,1.46,1.34,2.56,1.07,2.19,2.39,5.31,3.5,8.87,1.1,3.56,1.79,6.87,2.14,9.29,.18,1.21,.3,2.19,.35,2.87,.05,.68,.07,1.06,.03,1.06Z" style="fill:#455a64;"></path></g><g><g><path d="M550.71,236.46c-.58-4.69,1.03-39.28,.93-39.86-.1-.58-15.39-48.44-15.39-48.44l-4.14-15.1-31.02,26.42s-14.9-9.04-14.65-9.69l-1.43,9.26-2.57,1.44,2.43,39.73,5.45,153.19s10.26,7.41,32.28,6.97c27.46-.55,63.85-20.94,63.85-20.94,0,0-35.17-98.3-35.75-102.99Z" style="fill:#e0e0e0;"></path><polygon points="494.69 173.77 500.03 179.38 506.46 178.3 508.85 171.41 503.72 164.04 498.67 165.17 494.69 173.77" style="fill:#648a64;"></polygon><path d="M534.51,153.9s-.43,.55-1.32,1.41c-1.05,.98-2.33,2.18-3.83,3.59-3.26,3-7.81,7.11-12.87,11.59-1.65,1.46-3.26,2.87-4.76,4.2l-.33,.29-.28-.32c-3.5-4-5.8-7.94-7.5-10.69-.83-1.38-1.48-2.5-1.91-3.27-.43-.77-.65-1.2-.61-1.23,.09-.06,1.2,1.51,2.99,4.2,1.82,2.65,4.22,6.54,7.68,10.4l-.61-.03c1.5-1.33,3.09-2.75,4.74-4.22,5.06-4.49,9.67-8.52,13.04-11.4,1.58-1.33,2.92-2.45,4.02-3.38,.96-.78,1.51-1.19,1.56-1.15Z" style="fill:#263238;"></path><path d="M486.24,168.57c.07-.07,.91,.66,2.25,1.94,1.35,1.29,3.2,3.13,5.32,5.29l-.7,.1c.54-1.09,1.09-2.28,1.65-3.52,1.63-3.61,3.08-6.9,4.23-9.24,1.14-2.34,1.98-3.73,2.09-3.67,.11,.06-.52,1.53-1.51,3.93-1,2.4-2.35,5.72-3.99,9.35-.57,1.24-1.13,2.44-1.7,3.54l-.28,.54-.42-.44c-2.08-2.2-3.86-4.12-5.09-5.51-1.24-1.39-1.93-2.25-1.86-2.32Z" style="fill:#263238;"></path><polygon points="500.03 179.38 500.03 329.58 518.23 347.9 531.61 327.91 506.46 178.3 500.03 179.38" style="fill:#648a64;"></polygon></g><g><path d="M559.51,316.09l22.31,81.34c1.11,4.06,5.73,6.02,9.43,3.99l19.69-10.82" style="opacity:.3;"></path><path d="M592.63,282.66l7.87-132.02-49.4-7.38s-16.4-8.22-17.76-8.95l2.21,14.16s5.57,72.17,9.78,101.11c4.21,28.93,4.12,37.61,14.18,66.52,8.16,23.45,22.92,62.91,28.21,76.97,1.04,2.76,4.24,3.99,6.86,2.65l40.1-20.6-42.05-92.45Z" style="fill:#263238;"></path><path d="M553.21,278.33s-.07-.49-.12-1.42c-.04-.93-.13-2.31-.14-4.09-.04-3.55,0-8.68,.19-15.02,.35-12.68,1.17-30.18,2.28-49.5,.89-15.49,1.83-29.79,2.64-41.26l.18,.34c-2.61-1.56-5.02-3.01-7.25-4.35l-.3-.18,.21-.28c2.05-2.7,3.85-5.06,5.41-7.12v.27c-1.83-3.03-3.28-5.45-4.32-7.18-.46-.79-.82-1.42-1.11-1.91-.24-.44-.36-.67-.34-.68,.02-.01,.17,.2,.46,.61,.31,.48,.72,1.09,1.22,1.84,1.09,1.71,2.6,4.08,4.51,7.06l.09,.14-.1,.14c-1.53,2.09-3.29,4.48-5.3,7.21l-.09-.46c2.24,1.31,4.67,2.73,7.29,4.27l.19,.11v.22c-.7,11.51-1.55,25.8-2.48,41.26-1.12,19.31-2.03,36.8-2.55,49.47-.27,6.33-.4,11.46-.47,15-.05,1.77,0,3.15-.03,4.08-.01,.93-.03,1.42-.06,1.43Z" style="fill:#455a64;"></path></g><path d="M484.85,397.89c3.8,1.39,7.76-1.62,7.44-5.65l-1.13-101.91-5.35-136.38-4.79,8.32-29.96,16.05s2.11,14.58,6.21,38.64c3.93,23.08,11.76,79.64,11.76,79.64l-6.07,93.2,21.89,8.1Z" style="fill:#263238;"></path><g><path d="M454.44,199.85s.03,.08,.07,.24c.04,.19,.09,.42,.14,.71,.12,.67,.29,1.58,.51,2.74,.42,2.43,1.02,5.87,1.75,10.1,1.45,8.53,3.4,20.34,5.43,33.39,2.03,13.06,3.74,24.9,4.84,33.49,.56,4.29,.97,7.77,1.23,10.18,.12,1.17,.21,2.1,.28,2.77,.02,.29,.04,.53,.06,.72,.01,.16,.01,.25,0,.25,0,0-.03-.08-.06-.24-.03-.19-.07-.43-.11-.72-.09-.67-.22-1.6-.38-2.76-.33-2.44-.81-5.9-1.39-10.16-1.2-8.57-2.97-20.4-4.99-33.46-2.06-13.03-3.92-24.82-5.28-33.41-.67-4.24-1.21-7.69-1.59-10.13-.17-1.16-.31-2.09-.41-2.76-.04-.29-.07-.53-.09-.72-.02-.16-.02-.25-.01-.25Z" style="fill:#455a64;"></path><g style="opacity:.3;"><path d="M456.29,211.02c-4.09,19.16-.2,41.86,8.29,57.38-2.76-17.26-5.53-40.12-8.29-57.38Z"></path></g></g><path d="M491.87,354.34s.04,.26,.08,.75c.03,.54,.07,1.26,.12,2.16,.08,1.94,.19,4.64,.33,7.96,.23,6.77,.55,16.04,.91,26.27,.02,.64,.04,1.28,.06,1.91,0,.65-.04,1.33-.25,1.95-.36,1.26-1.22,2.33-2.26,3.04-1.05,.71-2.32,1.05-3.53,.95-.61-.03-1.2-.2-1.75-.4-.53-.21-1.05-.42-1.57-.62-4.12-1.64-7.84-3.13-10.98-4.38-3.08-1.25-5.59-2.27-7.38-2.99-.83-.35-1.49-.63-2-.84-.45-.2-.69-.31-.68-.33,0-.02,.25,.06,.72,.23,.51,.19,1.19,.44,2.03,.75,1.81,.69,4.34,1.66,7.44,2.84,3.15,1.22,6.88,2.67,11.02,4.27,1.05,.38,2.07,.93,3.18,.97,1.11,.09,2.26-.23,3.22-.88,.95-.65,1.72-1.62,2.05-2.77,.38-1.12,.17-2.4,.16-3.69-.29-10.24-.56-19.5-.75-26.27-.07-3.32-.13-6.03-.17-7.97,0-.9-.01-1.62-.02-2.17,0-.5,.01-.76,.03-.76Z" style="fill:#455a64;"></path></g><g><g><path d="M592.72,207.28l51.58,23.93-37.01,53.83,29.35,21.16s36.28-45.49,48.5-70.61c2.71-5.58,4.63-23.65-6.94-32.72-6.22-4.88-17.35-11.51-37.62-25.56-12.21-8.47-37.28-22.15-37.28-22.15l-2.81-4.54-7.77,56.65Z" style="fill:#263238;"></path><path d="M592.21,205.55s-.11-.17-.28-.51c-.19-.4-.43-.9-.72-1.52-.16-.34-.33-.71-.51-1.1-.17-.41-.33-.87-.51-1.35-.35-.98-.81-2.07-1.12-3.34-.18-.63-.36-1.29-.55-1.98-.19-.69-.3-1.43-.46-2.18-.35-1.5-.52-3.14-.74-4.86-.31-3.45-.35-7.27,.1-11.24,.49-3.97,1.42-7.68,2.52-10.96,.62-1.62,1.16-3.17,1.85-4.55,.33-.69,.62-1.38,.96-2.01,.35-.62,.68-1.22,1-1.79,.6-1.16,1.31-2.12,1.87-2.99,.29-.43,.55-.84,.81-1.2,.27-.34,.52-.66,.76-.95,.43-.53,.78-.96,1.06-1.31,.25-.29,.38-.44,.4-.43,.01,.01-.09,.18-.31,.5-.26,.36-.58,.81-.98,1.36-.22,.3-.46,.62-.71,.98-.25,.36-.49,.78-.77,1.21-.54,.88-1.22,1.84-1.79,3.01-.31,.57-.63,1.17-.96,1.8-.33,.63-.6,1.31-.92,2.01-.67,1.37-1.2,2.92-1.79,4.53-1.07,3.26-1.97,6.93-2.46,10.87-.44,3.94-.42,7.72-.14,11.14,.21,1.7,.36,3.33,.69,4.82,.15,.75,.26,1.48,.43,2.17,.18,.68,.35,1.34,.52,1.97,.29,1.27,.73,2.36,1.04,3.34,.17,.49,.31,.95,.47,1.36,.17,.4,.32,.77,.47,1.12,.26,.63,.47,1.15,.63,1.55,.14,.36,.21,.55,.19,.56Z" style="fill:#455a64;"></path><path d="M666.17,223.71c-.02,.1-1.36-.2-3.54-.25-1.09-.03-2.39,.04-3.81,.23-1.42,.22-2.97,.57-4.54,1.12-1.56,.57-2.98,1.27-4.23,1.99-1.23,.75-2.28,1.51-3.11,2.23-1.66,1.42-2.51,2.49-2.59,2.42-.03-.02,.17-.3,.55-.79,.19-.25,.43-.54,.74-.85,.31-.32,.64-.7,1.06-1.06,.81-.76,1.86-1.57,3.1-2.36,1.25-.76,2.7-1.5,4.3-2.07,1.6-.56,3.19-.91,4.64-1.1,1.46-.17,2.79-.21,3.89-.13,.55,.01,1.05,.1,1.49,.15,.44,.05,.81,.12,1.11,.2,.6,.14,.93,.23,.92,.27Z" style="fill:#455a64;"></path><polygon points="605.05 291.29 626.99 312.29 633.51 303.94 608.94 286.09 605.05 291.29" style="fill:#e0e0e0;"></polygon></g><g><path d="M556.56,291.72s15.21-5.7,17.59-5.14,15.34,6.53,17.98,6.39c2.64-.14,5.95,0,5.95,0,0,0-2.91-3.89-2.64-5.56,.06-.37,.25-.7,.52-.99,1.16-1.24,3.12-1.02,4.14,.35,2.07,2.77,6.33,7.33,7.47,6.93l15.24,14.59s-4.1,8.45-11.77,8.59c-7.67,.14-27.77-1.39-29.36-.83-1.59,.56-4.63,1.81-4.63,1.81,0,0-7.93,6.39-9.39,6.26-1.45-.14-3.04-.42-2.91-2.22,.13-1.81,8.2-9.04,9.65-10.29,1.45-1.25,6.35-3.2,6.35-3.2l-9.79,1.81s-10.31,5.7-13.09,5c-2.78-.69-3.31-1.67-2.51-2.92s13.09-8.48,13.09-8.48l2.21-1.37s-12.93,6.52-15.63,6.38c-2.71-.14-3.9-1.53-2.97-3.06s12.83-8.48,13.88-9.45c1.06-.97,3.98-1.53,3.98-1.53,0,0-3.71,1.53-9.26,1.25-5.55-.28-4.76-2.36-4.1-4.31Z" style="fill:#ffbf9d;"></path><path d="M582.84,301.1c-.02,.18-3.63-.76-8.04,.07-4.42,.77-7.48,2.9-7.56,2.74-.03-.05,.67-.64,1.98-1.35,1.3-.71,3.24-1.49,5.48-1.9,2.25-.4,4.33-.35,5.8-.13,1.48,.21,2.35,.52,2.33,.58Z" style="fill:#ff9a6c;"></path><path d="M580.82,293.5c-.02,.18-3.54-.93-7.88-.15-4.35,.72-7.29,2.94-7.37,2.78-.03-.04,.64-.66,1.91-1.39,1.26-.73,3.16-1.52,5.38-1.91,2.21-.38,4.27-.27,5.7,0,1.44,.26,2.28,.62,2.26,.67Z" style="fill:#ff9a6c;"></path></g></g></g><g><path d="M376.54,290.16h0c-2.74,1.76-6.38,.96-8.14-1.77l-51.13-79.63c-1.76-2.74-.96-6.38,1.77-8.14h0c2.74-1.76,6.38-.96,8.14,1.77l51.13,79.63c1.76,2.74,.96,6.38-1.77,8.14Z" style="fill:#455a64;"></path><g><polygon points="334.88 214.39 324.64 220.25 326.92 223.79 337.07 217.79 334.88 214.39" style="opacity:.3;"></polygon><g><path d="M306.85,157.84c16.84,30.67,24.69,58.55,17.58,62.46s-26.49-17.65-43.33-48.32c-16.84-30.67-24.73-58.69-17.62-62.6,7.11-3.9,26.52,17.79,43.37,48.46Z" style="fill:#e0e0e0;"></path><path d="M317.54,152.2c-16.84-30.67-36.26-52.36-43.37-48.46l-14.19,7.56c7.11-3.9,26.52,17.79,43.37,48.46,16.84,30.67,24.73,58.69,17.62,62.6l12.47-7.14,3.04-1.74,.05-.03-.02-.03c4.43-6.95-3.45-32.93-18.98-61.2Z" style="fill:#455a64;"></path><path d="M285.5,168.51c-13.15-23.95-20.8-46.22-20.16-56.72-2.17-1.02-4-1.24-5.37-.49-7.11,3.9,.78,31.93,17.62,62.6,16.84,30.67,36.26,52.36,43.37,48.46,1.56-.86,2.42-2.85,2.6-5.8-9.12-4.3-24.46-23.27-38.07-48.04Z" style="fill:#263238;"></path><path d="M299,186.63c-.14,0-.04-6.32,.24-14.09,.28-7.78,.62-14.08,.76-14.08,.14,0,.04,6.31-.24,14.09-.28,7.78-.62,14.08-.76,14.07Z" style="fill:#455a64;"></path><path d="M290.95,171.76c-.07,0-.1-1.04-.09-2.72,.01-1.68,.07-3.99,.16-6.55,.09-2.56,.2-4.87,.31-6.54,.11-1.67,.21-2.71,.28-2.7,.07,0,.1,1.04,.09,2.72-.01,1.68-.07,3.99-.16,6.55-.09,2.56-.2,4.87-.31,6.54-.11,1.67-.21,2.71-.28,2.7Z" style="fill:#455a64;"></path><path d="M295.45,174.16c-.14-.01-.05-3.03,.22-6.74,.26-3.71,.59-6.71,.74-6.7,.14,.01,.05,3.03-.22,6.74-.26,3.71-.59,6.71-.73,6.7Z" style="fill:#455a64;"></path></g><g><g><path d="M329.79,228.27c.07,.25,14.6,3.49,16.16,6.09,1.61,2.68-.54,3.7-2.4,4.19-1.88,.49-2.41,.39-2.41,.39,0,0,9.17,1.45,9.41,4.8s-3.61,3.61-3.61,3.61c0,0,3.29,1.39,3.37,4.34,.08,2.94-2.75,3.24-2.75,3.24,0,0,3.45,1.16,.58,3.86s-9.94,1.19-9.94,1.19" style="fill:#ffbf9d;"></path><path d="M338.2,259.96s.38,.04,1.09,.12c.71,.08,1.76,.19,3.09,.17,1.31-.03,3-.1,4.64-.93,.79-.41,1.56-1.11,1.96-2,.18-.45,.11-.94-.19-1.33-.31-.39-.79-.68-1.29-.87-.11-.04-.17-.17-.13-.28,.03-.08,.09-.13,.17-.14h0c.71-.12,1.47-.46,1.94-1.06,.49-.59,.66-1.43,.57-2.25-.15-1.67-1.58-3.07-3.2-3.83-.13-.06-.18-.21-.12-.34,.04-.08,.12-.14,.2-.15,1.22-.13,2.6-.7,3.14-1.89,.24-.56,.32-1.32,.13-1.89-.21-.6-.73-1.09-1.3-1.49-1.17-.79-2.52-1.29-3.84-1.7-1.33-.41-2.66-.72-3.95-.94l.09-.5c.78,.01,1.75-.23,2.58-.45,.83-.24,1.66-.58,2.16-1.18,.52-.59,.41-1.44,.07-2.14-.18-.37-.35-.67-.65-.9-.29-.24-.61-.45-.95-.64-1.34-.75-2.72-1.26-4-1.73-1.28-.46-2.49-.85-3.59-1.19-4.4-1.34-7.07-2.02-7.01-2.18,0,0,.66,.18,1.88,.48,1.22,.31,3.01,.75,5.22,1.39,1.11,.32,2.32,.69,3.62,1.13,1.3,.45,2.69,.95,4.09,1.72,.35,.19,.69,.41,1.02,.68,.34,.26,.59,.68,.77,1.05,.17,.4,.34,.82,.34,1.29,.01,.47-.15,.96-.45,1.34-.62,.75-1.52,1.08-2.39,1.35-.44,.13-.88,.23-1.34,.33-.47,.08-.89,.19-1.47,.15-.14,0-.25-.13-.24-.27,0-.14,.13-.24,.27-.24h.05c1.32,.23,2.67,.54,4.02,.95,1.35,.42,2.73,.92,3.98,1.77,.61,.43,1.22,.97,1.5,1.74,.16,.39,.13,.79,.12,1.16-.02,.19-.06,.38-.09,.57-.05,.18-.12,.37-.18,.55-.32,.71-.91,1.24-1.55,1.58-.65,.34-1.32,.53-2.03,.6l.08-.48c.9,.42,1.68,.99,2.32,1.71,.63,.71,1.08,1.6,1.16,2.54,.1,.91-.09,1.88-.69,2.59-.59,.71-1.41,1.07-2.25,1.2l.05-.42c.58,.23,1.1,.54,1.48,1.03,.39,.49,.47,1.2,.23,1.73-.48,1.03-1.3,1.73-2.17,2.17-1.76,.84-3.46,.86-4.8,.86-1.35-.02-2.4-.17-3.11-.29-.71-.12-1.08-.23-1.07-.25Z" style="fill:#ff9a6c;"></path></g><path d="M347.2,247.3c-.02,.07-.89-.09-2.28-.36-1.59-.31-3.43-.66-5.46-1.05-2.13-.4-4.07-.77-5.46-1.06-1.39-.29-2.25-.51-2.24-.58,.01-.07,.89,.02,2.3,.21,1.41,.2,3.36,.51,5.49,.91,2.14,.4,4.06,.84,5.44,1.2,1.38,.36,2.22,.65,2.2,.72Z" style="fill:#ff9a6c;"></path><path d="M332.43,236.8c.02-.14,2.04,.04,4.48,.6,2.44,.56,4.33,1.28,4.29,1.41-.04,.14-1.99-.35-4.41-.91-2.41-.56-4.38-.96-4.36-1.11Z" style="fill:#ff9a6c;"></path><path d="M335.2,253.59c0-.07,.69-.13,1.81-.14,1.12-.01,2.67,.02,4.38,.17,3.43,.28,6.1,1.17,6.05,1.31-.04,.14-2.72-.51-6.1-.79-3.38-.29-6.15-.39-6.14-.55Z" style="fill:#ff9a6c;"></path></g></g></g></g><g id="freepik--Character_1--inject-335"><g><g><path d="M292.44,386.75c.02-.21,.04-.43,.05-.64,.18-4.1-1.48-8.03-3.09-11.81-4.3-10.13-8.46-20.89-7.25-31.82,1.6-14.46,12.23-26.42,16.03-40.41,.45-1.65,1.96-2.78,3.67-2.78h0c2.57,0,4.43,2.49,3.64,4.92-4.23,13.08-13.87,24.55-15.39,38.27-1.21,10.94,2.95,21.69,7.25,31.82,1.6,3.78,3.27,7.71,3.09,11.81-.18,4.1-2.82,8.41-6.88,9.07h-60.43c-2.11,0-3.81-1.7-3.81-3.8v-.82c0-2.1,1.71-3.8,3.81-3.8h59.31Z" style="fill:#455a64;"></path><path d="M304.59,477.35h-87.7c-1.23,0-2.36-.6-3.13-1.65-.87-1.2-1.11-2.79-.64-4.24l24.96-76.5,1.3,.43-24.96,76.5c-.34,1.03-.17,2.16,.45,3.01,.5,.69,1.24,1.09,2.02,1.09h87.7c.77,0,1.47-.37,1.98-1.04,.61-.81,.81-1.9,.53-2.92l-21.45-76.66,1.32-.37,21.45,76.66c.4,1.43,.12,2.97-.75,4.12-.76,1-1.88,1.58-3.07,1.58Z" style="fill:#e0e0e0;"></path></g><g><g><path d="M181.59,338.5s3.19-7.76,6.35-9.4c3.15-1.64,7.17-2.69,7.17-2.69h14.05l.14,9.09s-2.03,2.03-4.81,1.65c-2.78-.38-9.72-2.1-9.72-2.1l-3.43,.19-3.16,4.05s-2.56,.78-1.66-1.65c.9-2.43,1.3-3.49,1.3-3.49,0,0-3.03,4.72-4.2,4.94-1.16,.22-2.04-.58-2.04-.58Z" style="fill:#ff9a6c;"></path><path d="M239.64,309.23l-11.18,16.08-19.31,1.1-.26,8.82,14.55,2.86c7.56,1.49,15.36-.83,20.88-6.2h0l2.13-19.44-6.81-3.22Z" style="fill:#ffbf9d;"></path></g><g><path d="M224.91,439.48l15.55,15.21s-11.23,21.68-8.65,24.78l32.47-30.55-23.2-24.74-16.17,15.3Z" style="fill:#263238;"></path><path d="M249.24,443.92c.78-.43,1.85-.17,2.27,.56,.42,.74,.11,1.83-.67,2.27-.77,.44-2.07,.17-2.4-.61-.33-.78,.11-2.05,.95-2.3" style="fill:#e0e0e0;"></path><path d="M264.28,448.93l-2.44-2.4-30.21,30.19s-.88,1.95,.19,2.76l32.47-30.55Z" style="fill:#455a64;"></path><path d="M239.79,455.03c.15,.14,1-.53,2.24-.79,1.23-.28,2.25-.02,2.34-.21,.12-.17-.97-.84-2.46-.51-1.49,.32-2.28,1.4-2.12,1.5Z" style="fill:#fff;"></path><path d="M237.64,459.57c.1,.18,1.03-.21,2.17-.09,1.14,.09,1.93,.65,2.08,.49,.17-.12-.55-1.1-1.97-1.23-1.42-.14-2.41,.67-2.28,.82Z" style="fill:#fff;"></path><path d="M239.35,465.23c.17-.1-.31-1.06-1.5-1.49-1.18-.44-2.23-.06-2.18,.12,.03,.21,.92,.19,1.89,.57,.97,.35,1.62,.94,1.79,.8Z" style="fill:#fff;"></path><path d="M236.65,451.15c.2,.07,.73-.82,1.68-1.6,.94-.8,1.9-1.18,1.86-1.38-.01-.19-1.22-.11-2.32,.83-1.11,.93-1.41,2.11-1.22,2.15Z" style="fill:#fff;"></path></g><path d="M232.5,352.02c-2.38,0-60.25,16.86-66.51,22.56-6.26,5.7-10.95,76.22-10.95,76.22l24.27,8.32s5.11-34.44,8.21-45.56c2.46-8.84,1.9-17.1,1.9-17.1l48.05-20.92-4.97-23.51Z" style="fill:#263238;"></path><g><path d="M233.96,355.74c-1.08,.47-43.13,18.43-47.08,30.45-3.22,9.8,.52,18.43,5.02,25.18,5.08,7.61,42.32,41.6,42.32,41.6l21.02-15.03-36.04-37.22s18.91-11.67,19.55-11.67,20.3-1.3,26.53-2c5.82-.66,9-9,9-9l5.19-23.92-39-9-6.53,10.61Z" style="fill:#263238;"></path><path d="M233.96,355.74s.13-.24,.41-.7c.28-.46,.69-1.14,1.24-2.04,1.1-1.8,2.72-4.45,4.83-7.91l.02-.04h.05c8.7,2,22.1,5.07,39.01,8.95l.12,.03-.03,.12c-1.55,7.19-3.3,15.27-5.17,23.92h0v.02c-.89,2.14-2.09,4.2-3.71,6-.81,.89-1.76,1.69-2.85,2.27-.27,.15-.54,.3-.84,.39-.3,.1-.58,.25-.89,.28-.31,.06-.62,.13-.92,.17l-.92,.1c-4.92,.49-10.01,.85-15.25,1.23-2.62,.18-5.27,.36-7.96,.54-.67,.04-1.35,.08-2.03,.12h-.26c-.06,0-.05,.03-.07,.03-.02,0-.07,.03-.1,.04-.14,.06-.3,.15-.44,.22l-.89,.49c-1.18,.67-2.36,1.37-3.55,2.08-4.74,2.83-9.55,5.78-14.44,8.8l.03-.27c8.97,9.27,18.43,19.03,28.14,29.06,2.65,2.74,5.29,5.46,7.9,8.16l.14,.15-.17,.12c-7.17,5.12-14.19,10.14-21.02,15.03l-.12,.08-.1-.1c-7.53-6.9-14.75-13.65-21.61-20.21-3.43-3.28-6.77-6.51-9.97-9.72-3.21-3.21-6.32-6.36-9.13-9.64-.37-.4-.67-.85-1-1.27-.33-.43-.66-.85-.94-1.31-.58-.89-1.14-1.79-1.65-2.71-1.03-1.83-1.92-3.7-2.61-5.62-.69-1.92-1.2-3.87-1.45-5.83-.25-1.96-.25-3.91-.04-5.8,.21-1.9,.64-3.72,1.31-5.44,.74-1.7,1.91-3.11,3.1-4.39,2.45-2.52,5.14-4.56,7.76-6.39,5.26-3.63,10.28-6.44,14.71-8.81,4.44-2.37,8.31-4.26,11.48-5.76,3.17-1.5,5.65-2.61,7.33-3.35,.84-.36,1.48-.64,1.91-.83,.43-.18,.66-.27,.66-.27,0,0-.22,.11-.64,.3-.43,.19-1.07,.48-1.9,.86-1.67,.76-4.14,1.88-7.3,3.41-3.16,1.52-7.02,3.43-11.45,5.81-4.42,2.39-9.43,5.21-14.67,8.84-2.61,1.82-5.28,3.86-7.7,6.37-1.18,1.27-2.33,2.67-3.04,4.32-.65,1.68-1.08,3.5-1.28,5.37-.21,1.87-.2,3.8,.05,5.74,.25,1.94,.76,3.87,1.44,5.77,.69,1.9,1.57,3.76,2.6,5.57,.51,.91,1.06,1.81,1.64,2.69,.27,.45,.6,.87,.93,1.29,.33,.42,.63,.86,.99,1.25,2.8,3.26,5.91,6.41,9.12,9.61,3.21,3.2,6.55,6.43,9.98,9.71,6.86,6.55,14.09,13.3,21.62,20.19h-.22c6.83-4.9,13.85-9.92,21.02-15.04l-.02,.27c-2.61-2.69-5.24-5.41-7.9-8.16-9.71-10.03-19.16-19.79-28.13-29.06l-.15-.16,.18-.11c4.9-3.01,9.71-5.96,14.45-8.79,1.19-.71,2.37-1.4,3.56-2.08l.9-.5c.16-.08,.3-.16,.47-.23,.05-.02,.07-.04,.13-.06,.06-.02,.14-.04,.17-.04h.25c.68-.05,1.35-.09,2.02-.13,2.69-.18,5.34-.36,7.96-.54,5.23-.38,10.33-.74,15.24-1.22,1.24-.08,2.41-.33,3.47-.91,1.05-.56,1.98-1.33,2.77-2.2,1.58-1.75,2.78-3.8,3.65-5.9v.02c1.88-8.65,3.64-16.73,5.2-23.91l.09,.15c-16.9-3.93-30.29-7.04-38.98-9.06l.07-.03c-2.14,3.45-3.78,6.1-4.89,7.89-.55,.89-.97,1.56-1.26,2.02-.28,.45-.43,.67-.43,.67Z" style="fill:#455a64;"></path></g><g><path d="M159.89,439.82l-3.1,21.53s-24.13,3.73-25.11,7.64l43.82,8.18,6.28-33.33-21.9-4.03Z" style="fill:#263238;"></path><path d="M170.66,462.08c.81,.38,1.23,1.39,.88,2.17-.35,.77-1.41,1.17-2.23,.8-.81-.36-1.36-1.57-.92-2.3,.44-.73,1.72-1.13,2.42-.59" style="fill:#e0e0e0;"></path><path d="M175.5,477.18l.49-3.39-42.2-6.58s-2.1,.44-2.12,1.78l43.82,8.18Z" style="fill:#455a64;"></path><path d="M156.11,461.01c-.03,.2,1.02,.5,1.96,1.34,.96,.83,1.34,1.81,1.55,1.76,.2,0,.11-1.27-1.04-2.28-1.14-1.02-2.48-1.02-2.46-.82Z" style="fill:#fff;"></path><path d="M151.19,461.95c-.08,.19,.78,.71,1.35,1.7,.6,.98,.61,1.94,.83,1.97,.19,.07,.56-1.09-.17-2.31-.72-1.23-1.97-1.55-2.01-1.36Z" style="fill:#fff;"></path><path d="M147.62,466.67c.19,.08,.67-.88,.32-2.09-.34-1.22-1.27-1.84-1.39-1.69-.15,.14,.39,.86,.66,1.86,.29,.99,.2,1.86,.41,1.92Z" style="fill:#fff;"></path><path d="M157.39,456.19c.06,.2,1.09,.11,2.28,.41,1.2,.28,2.07,.84,2.22,.69,.15-.12-.63-1.05-2.04-1.38-1.41-.35-2.53,.11-2.46,.29Z" style="fill:#fff;"></path></g><g><g><path d="M245.59,224.45c-1.21-1.19-3.21-1.48-4.71-.68-2.34-.88-5.24,.12-6.55,2.25-1.68-.38-3.54,.18-4.72,1.43-1.19,1.24-1.66,3.13-1.2,4.78-1.72,.27-3.19,1.72-3.48,3.44-.29,1.72,.63,3.57,2.17,4.38-1.59,1.15-2.11,3.57-1.12,5.27,.99,1.7,3.34,2.46,5.13,1.64l15.21-17.82c.79-1.5,.48-3.51-.73-4.7Z" style="fill:#263238;"></path><g><g><path d="M230.72,247.69c-2.04-8.64,2.9-17.41,11.35-20.13l.84-.27c9.23-2.39,16.42,4.1,18.55,13.39l8.09,31.36-.04,.37-8.64,16.93-3.29-.47-7.08-5.93-2.22-6.94s-9.14,1.46-12.06-7.21c-1.41-4.19-3.61-13.05-5.51-21.09Z" style="fill:#ffbf9d;"></path><path d="M248.3,276s5.58-1.46,10.24-7.02c0,0-.69,7.22-9.54,9.24l-.7-2.22Z" style="fill:#ff9a6c;"></path><path d="M238.04,254.83c.19,.66,.91,1.05,1.6,.87,.7-.18,1.11-.87,.92-1.53-.19-.66-.91-1.05-1.6-.87-.7,.18-1.11,.87-.92,1.54Z" style="fill:#263238;"></path><path d="M234.01,251.82c.21,.11,.92-.89,2.26-1.32,1.33-.45,2.54-.08,2.63-.29,.05-.1-.2-.34-.73-.51-.52-.17-1.34-.24-2.17,.03-.83,.27-1.43,.81-1.74,1.25-.31,.45-.35,.79-.25,.83Z" style="fill:#263238;"></path><path d="M250.38,250.4c.19,.66,.91,1.05,1.6,.87,.7-.18,1.11-.87,.92-1.53-.19-.66-.91-1.05-1.6-.87-.7,.18-1.11,.87-.92,1.54Z" style="fill:#263238;"></path><path d="M246.75,247.5c.21,.11,.92-.89,2.26-1.32,1.33-.45,2.53-.08,2.63-.29,.05-.1-.2-.34-.73-.51-.52-.17-1.34-.24-2.17,.03-.83,.27-1.43,.81-1.74,1.25-.31,.45-.35,.79-.25,.83Z" style="fill:#263238;"></path><path d="M245.54,258.84c-.02-.08-.9,.05-2.3,.31-.35,.08-.7,.11-.83-.1-.16-.22-.14-.64-.1-1.09,.05-.93,.11-1.91,.17-2.93,.21-4.16,.24-7.53,.07-7.54-.17,0-.47,3.36-.68,7.51-.04,1.02-.08,2-.12,2.93,0,.43-.08,.94,.26,1.4,.17,.23,.48,.33,.72,.32,.24,0,.43-.06,.61-.11,1.38-.36,2.22-.63,2.2-.71Z" style="fill:#263238;"></path><path d="M244.28,242.22c.27,.3,1.32-.39,2.73-.82,1.4-.46,2.67-.51,2.7-.91,0-.19-.33-.43-.91-.56-.58-.14-1.41-.14-2.25,.12-.84,.27-1.5,.75-1.88,1.19-.38,.45-.5,.83-.38,.97Z" style="fill:#263238;"></path><path d="M232.82,247.68c.31,.25,1.18-.29,2.31-.57,1.12-.32,2.14-.28,2.29-.66,.06-.18-.16-.46-.65-.65-.48-.2-1.23-.27-2-.07-.77,.21-1.38,.65-1.7,1.06-.33,.41-.38,.76-.24,.89Z" style="fill:#263238;"></path><path d="M230.27,243.43s.54-6.19,2.75-8.31c2.69-2.57,5.18,.48,7.94-1.34,2.76-1.83,5.32-4.28,9.18-2.94,4.22,1.47,3.21,3.78,4.67,7.58,5.9,15.38,10.19,18.89,8.63,11.25-.17-.84,1.86-2.2,1.09-5.72-1-4.57-2.56-10-4.57-12.82-1.69-2.38-3.79-3.72-7.15-4.86-5.3-1.8-11.19,.02-15.05,1.71-3.86,1.69-10.06,8.76-7.5,15.47Z" style="fill:#263238;"></path><path d="M262.81,249.6c-.38-1.36,.44-2.8,1.82-3.1,1.67-.37,3.78-.03,4.75,3.36,1.73,6.01-4.66,6.51-4.72,6.34-.04-.11-1.14-4.08-1.85-6.6Z" style="fill:#ffbf9d;"></path><path d="M265.31,253.56s.13,.04,.33,.07c.19,.03,.51,0,.79-.21,.57-.42,.81-1.58,.53-2.67-.14-.55-.41-1.04-.72-1.41-.31-.39-.68-.61-1.02-.58-.34,.02-.51,.27-.54,.47-.03,.19,.04,.3,.01,.32-.01,.02-.16-.06-.18-.33,0-.13,.02-.29,.13-.44,.11-.16,.31-.28,.54-.32,.47-.1,1.01,.21,1.36,.62,.38,.41,.69,.95,.85,1.57,.31,1.22,.02,2.53-.78,3.04-.39,.23-.78,.21-1,.12-.23-.1-.3-.22-.28-.24Z" style="fill:#ff9a6c;"></path></g><path d="M258.97,238.11c-.6,.78-1.24,1.58-2.15,1.98-.9,.39-2.14,.2-2.59-.67-.2-.39-.26-.9-.63-1.14-.45-.28-1.01,.04-1.49,.25-1.67,.74-3.84,.09-4.82-1.45-.23,.8-1.27,1.11-2.07,.89-.81-.21-1.46-.78-2.18-1.21-.72-.43-1.62-.73-2.37-.36-.42,.2-.75,.6-1.2,.7-.8,.18-1.48-.61-1.85-1.35-.37-.74-.75-1.61-1.55-1.82-.74-.19-1.46,.29-2.15,.63-.69,.34-1.67,.47-2.08-.17-.22-.34-.18-.78-.08-1.17,.46-1.76,2.27-3.06,4.08-2.93-.05-2.15,1.29-4.28,3.26-5.15,1.97-.87,4.45-.44,6.01,1.04,.89-1.55,2.56-2.62,4.34-2.77,1.78-.16,3.61,.6,4.76,1.97,1.32-.85,3.16-.82,4.45,.07,1.3,.89,1.99,2.58,1.68,4.13,1.27,.27,2.53,1.03,2.95,2.26,.42,1.22-.38,2.84-1.68,2.9,.79,.8,.82,2.23,.06,3.07-.76,.84-2.18,.95-3.06,.24" style="fill:#263238;"></path></g><path d="M262.03,234.58s.27,.46,0,1.26c-.14,.38-.44,.83-.96,1.1-.51,.26-1.21,.34-1.86,.05l.24-.12c-.13,.61-.35,1.25-.71,1.87-.23,.39-.51,.75-.87,1.02-.34,.28-.78,.44-1.16,.5-.78,.16-1.57-.03-2.04-.43-.47-.38-.72-.8-.88-1.08-.16-.29-.22-.46-.2-.47,.02-.01,.13,.13,.32,.39,.19,.25,.47,.63,.91,.95,.84,.67,2.82,.51,3.6-1.07,.33-.57,.55-1.18,.68-1.76l.05-.21,.19,.09c.53,.25,1.14,.2,1.58,0,.45-.21,.74-.58,.89-.92,.3-.7,.14-1.18,.2-1.18Z" style="fill:#455a64;"></path><path d="M246.4,224.61s-.14,.09-.37,.29c-.22,.2-.53,.55-.67,1.08l-.03,.14-.12-.08c-.8-.57-2.04-1.22-3.63-1.4-.79-.08-1.66-.03-2.51,.24-.85,.27-1.66,.8-2.29,1.53-.49,.57-.84,1.23-1.04,1.91-.19,.68-.21,1.37-.08,2.01l.04,.19h-.2c-.97,.05-1.83,.52-2.38,1.11-.56,.59-.81,1.3-.88,1.89-.14,1.2,.26,1.87,.2,1.88-.01,0-.12-.14-.23-.46-.11-.32-.22-.81-.17-1.44,.05-.62,.29-1.39,.88-2.05,.58-.65,1.49-1.18,2.57-1.24l-.15,.2c-.16-.68-.14-1.44,.06-2.17,.21-.73,.58-1.44,1.11-2.05,.67-.78,1.54-1.35,2.45-1.63,.91-.29,1.83-.32,2.65-.22,1.66,.21,2.92,.94,3.71,1.56l-.15,.05c.18-.59,.54-.93,.79-1.11,.26-.18,.43-.22,.44-.21Z" style="fill:#455a64;"></path><path d="M250.46,259.78c-.65-.31-1.65-.02-2.22,.62-.58,.63-.14,1.77,.51,2.08,.65,.31,1.69-.09,2.13-.8,.44-.71,.23-1.59-.42-1.9Z" style="fill:#ff9a6c;"></path><path d="M249.84,262.36c-.01-.08,.32-.15,.66-.49,.35-.31,.58-1,.15-1.56-.39-.54-1.16-.4-1.6-.21-.47,.19-.77,.36-.81,.29-.03-.05,.17-.31,.65-.62,.24-.15,.57-.3,.97-.32,.4-.04,.92,.14,1.21,.55,.3,.39,.38,.88,.27,1.29-.11,.41-.37,.7-.61,.86-.5,.34-.9,.27-.89,.21Z" style="fill:#263238;"></path></g><path d="M248.76,283.63l.67-3.63,20.32-10.09,1.9,2.97s8.16,6.64,11.29,12.4c3.12,5.76-.58,52.96-1.1,59.85-1.05,13.88-6.24,32.05-6.24,32.05,0,0-7-4.87-27.58-13.32-20.59-8.45-21.69-12.28-21.69-12.28l12.13-15.38,10.31-52.56Z" style="fill:#648a64;"></path><path d="M248.72,283.85c-.12,.68-11.25,26.25-11.25,26.25,0,0,5.12,2.86,5.84,3,.71,.14,5.41-29.25,5.41-29.25Z" style="fill:#648a64;"></path><path d="M246.45,289.63c.1,.02-.78,6.03-1.95,13.43-1.18,7.4-2.21,13.39-2.31,13.38-.1-.02,.78-6.03,1.95-13.43,1.18-7.4,2.21-13.39,2.31-13.38Z" style="fill:#263238;"></path></g><g><g><path d="M179.57,336.76s4.64-8.45,8.1-9.97c3.46-1.52,7.8-2.35,7.8-2.35l14.61,1.97-.26,8.82s-2.3,2.03-5.21,1.41c-2.92-.62-10.14-2.97-10.14-2.97l-3.64-.06-3.64,4.1s-2.77,.64-1.64-1.89c1.13-2.53,1.64-3.64,1.64-3.64,0,0-4.14,4.76-5.39,4.91s-2.22-.33-2.22-.33Z" style="fill:#ffbf9d;"></path><path d="M254.76,302.27l-10.13,23.8-34.68,.34-.26,8.82s33.44,11.92,42.35,9.61c8.91-2.32,23.68-34.15,23.68-34.15l-20.95-8.41Z" style="fill:#ffbf9d;"></path><g><path d="M262.96,282.19c-.95,.87-4.08,4.59-7.43,12.68-3.35,8.09-8.04,17.54-8.04,17.54l23.91,9.63s5.45-12.68,7.98-18.32c1.93-4.29,3.27-12.74,1.52-16.83-1.76-4.09-9.62-12.34-17.95-4.71Z" style="fill:#648a64;"></path><path d="M262.96,282.19s.07-.08,.22-.21c.15-.13,.37-.34,.67-.59,.61-.49,1.56-1.19,2.95-1.76,1.38-.54,3.27-.91,5.36-.4,2.09,.47,4.26,1.77,6.13,3.7,.93,.97,1.81,2.09,2.5,3.41,.67,1.34,.96,2.89,1.04,4.47,.15,3.18-.3,6.58-1.24,10.02-.46,1.73-1.24,3.4-1.98,5.1-.74,1.7-1.5,3.44-2.27,5.21-1.54,3.54-3.14,7.21-4.77,10.97l-.07,.16-.16-.06c-.11-.04-.23-.09-.35-.14-8.47-3.42-16.49-6.66-23.56-9.51l-.16-.06,.08-.16c2.23-4.52,4.21-8.74,5.91-12.52,1.71-3.77,3-7.18,4.41-9.83,1.37-2.67,2.67-4.66,3.65-5.95,.49-.64,.9-1.11,1.18-1.42,.29-.3,.46-.43,.46-.43,0,0-.03,.04-.11,.12-.08,.09-.19,.2-.32,.35-.27,.31-.67,.79-1.14,1.44-.95,1.3-2.22,3.3-3.56,5.98-1.38,2.66-2.64,6.07-4.34,9.85-1.68,3.79-3.64,8.02-5.86,12.55l-.08-.22c7.07,2.84,15.1,6.07,23.57,9.48l.35,.14-.23,.09c1.64-3.76,3.24-7.43,4.78-10.97,.77-1.77,1.53-3.51,2.28-5.21,.74-1.71,1.51-3.34,1.97-5.05,.95-3.4,1.4-6.78,1.27-9.91-.07-1.56-.35-3.08-.99-4.37-.66-1.28-1.52-2.4-2.43-3.36-1.83-1.91-3.96-3.2-5.99-3.69-2.04-.51-3.9-.18-5.27,.34-1.38,.55-2.33,1.22-2.95,1.69-.31,.23-.54,.44-.69,.56-.16,.13-.24,.18-.24,.18Z" style="fill:#263238;"></path></g><path d="M193.73,328.9c0,.11-1.8-.05-3.7,.95-1.92,.96-2.86,2.52-2.95,2.45-.03-.02,.14-.44,.6-1,.45-.57,1.2-1.26,2.19-1.76,.99-.5,1.99-.71,2.7-.74,.72-.03,1.16,.07,1.15,.11Z" style="fill:#ff9a6c;"></path></g><path d="M249.66,313.43s-.02,.09-.08,.25c-.07,.18-.16,.41-.27,.69-.26,.64-.62,1.51-1.07,2.6-.96,2.26-2.29,5.42-3.87,9.16l-.04,.1h-.11c-3.19,.04-6.81,.08-10.65,.12-6.72,.05-12.81,.09-17.26,.12-2.18,0-3.96,0-5.23,0-.59,0-1.06-.01-1.42-.02-.33,0-.5-.02-.5-.03,0-.01,.17-.03,.5-.04,.36-.01,.83-.03,1.42-.05,1.28-.03,3.05-.06,5.23-.11,4.45-.06,10.54-.13,17.26-.22,3.83-.03,7.46-.06,10.65-.09l-.15,.1c1.63-3.72,3-6.86,3.99-9.11,.48-1.08,.87-1.94,1.15-2.57,.13-.27,.23-.5,.32-.67,.07-.15,.12-.23,.13-.23Z" style="fill:#ff9a6c;"></path></g></g><g><rect x="154.74" y="341.7" width="45.07" height="2.13" transform="translate(354.55 685.53) rotate(180)" style="fill:#e0e0e0;"></rect><g><rect x="79.99" y="345.13" width="6.75" height="132.05" style="fill:#455a64;"></rect><rect x="220.62" y="346.06" width="6.75" height="131.13" style="fill:#455a64;"></rect><rect x="70.75" y="343.83" width="163.3" height="7.97" style="fill:#455a64;"></rect></g><g><path d="M142.29,226.19l-6.18,1.02s-6.74,24.57-1.76,59.42c4.68,32.77,13.61,45.15,13.61,45.15l6.47-1.56-12.14-104.03Z" style="fill:#e0e0e0;"></path><path d="M138.64,283.07l-1.51-5.61c-.35,.15-7.76,2-9.42,6.45s0,54.99,0,54.99l.19,4.92h5.14s-1.74-54.61-.57-57c1.55-3.16,2.85-3.55,6.18-3.76Z" style="fill:#e0e0e0;"></path><rect x="127.86" y="340.83" width="24.12" height="3" style="fill:#e0e0e0;"></rect><path d="M147.97,331.78c-.12,.01-2.87-23.39-6.14-52.26-3.27-28.88-5.83-52.3-5.71-52.31,.12-.01,2.87,23.38,6.14,52.26,3.27,28.87,5.83,52.3,5.71,52.31Z" style="fill:#455a64;"></path></g><g><rect x="78.39" y="337.78" width="43.6" height="6.05" style="fill:#648a64;"></rect><rect x="78.39" y="338.54" width="42.89" height="4.51" style="fill:#f5f5f5;"></rect><g style="opacity:.3;"><rect x="113.52" y="337.78" width="8.47" height="6.05"></rect></g><path d="M121.28,339.52s-.04,0-.11,0c-.07,0-.18,0-.33,0-.29,0-.71,0-1.25,0-1.09,0-2.66,0-4.6,.01-3.89,0-9.25,0-15.18,0-5.93,0-11.3,0-15.18,0-1.94,0-3.51,0-4.6-.01-.54,0-.96,0-1.25,0-.14,0-.25,0-.33,0-.07,0-.11,0-.11,0,0,0,.04,0,.11,0h.33c.29,0,.71,0,1.25,0,1.09,0,2.66,0,4.6-.01,3.89,0,9.25,0,15.18,0,5.93,0,11.29,0,15.18,0,1.94,0,3.51,0,4.6,.01,.54,0,.96,0,1.25,0h.33c.07,0,.11,0,.11,0Z" style="fill:#263238;"></path><path d="M121.28,340.73s-.04,0-.11,0h-.33c-.29,0-.71,0-1.25,0-1.09,0-2.66,0-4.6,.01-3.89,0-9.25,0-15.18,0-5.93,0-11.3,0-15.18,0-1.94,0-3.51,0-4.6-.01-.54,0-.96,0-1.25,0h-.33c-.07,0-.11,0-.11,0,0,0,.04,0,.11,0,.07,0,.18,0,.33,0,.29,0,.71,0,1.25,0,1.09,0,2.66,0,4.6-.01,3.89,0,9.25,0,15.18,0,5.93,0,11.29,0,15.18,0,1.94,0,3.51,0,4.6,.01,.54,0,.96,0,1.25,0,.14,0,.25,0,.33,0,.07,0,.11,0,.11,0Z" style="fill:#263238;"></path><path d="M113.54,343.73s-.03-1.32-.03-2.94,.01-2.94,.03-2.94,.03,1.32,.03,2.94-.01,2.94-.03,2.94Z" style="fill:#263238;"></path><g><rect x="85.6" y="332.18" width="30.15" height="5.6" style="fill:#455a64;"></rect><rect x="110.17" y="332.22" width="8.21" height="5.53" style="fill:#455a64;"></rect><rect x="110.94" y="332.97" width="7.43" height="3.97" style="fill:#f5f5f5;"></rect><g style="opacity:.3;"><rect x="110.17" y="332.22" width="8.21" height="5.53"></rect></g><path d="M107.96,336.55s0-.05,0-.15c0-.1,0-.25,0-.45,0-.4,0-.98,0-1.74h.01c-3.49,.02-11.37,.02-20.51,.03h0l.03-.03c0,.8,0,1.59,0,2.34l-.03-.03c5.75,0,10.88,.01,14.57,.01,1.85,0,3.33,0,4.36,0h1.49c.07,0,.11,0,.11,0,0,0-.03,0-.1,0h-.3c-.27,0-.66,0-1.17,0-1.02,0-2.51,0-4.35,0-3.69,0-8.82,0-14.59,.01h-.03v-2.4h.03c9.15,0,17.02,.02,20.51,.02h.01c0,.77,0,1.36,0,1.76,0,.2,0,.35,0,.45,0,.1,0,.15,0,.15Z" style="fill:#263238;"></path><path d="M110.18,337.74s-.03-1.25-.03-2.8,.01-2.8,.03-2.8,.03,1.25,.03,2.8-.01,2.8-.03,2.8Z" style="fill:#263238;"></path></g></g><path d="M231.1,351.8c0,.1-35.86,.18-80.09,.18s-80.09-.08-80.09-.18,35.85-.18,80.09-.18,80.09,.08,80.09,.18Z" style="fill:#263238;"></path></g></g></g></svg>
