<?xml version="1.0" standalone="no"?>
<!DOCTYPE svg PUBLIC "-//W3C//DTD SVG 20010904//EN"
 "http://www.w3.org/TR/2001/REC-SVG-20010904/DTD/svg10.dtd">
<svg version="1.0" xmlns="http://www.w3.org/2000/svg"
 width="512.000000pt" height="512.000000pt" viewBox="0 0 512.000000 512.000000"
 preserveAspectRatio="xMidYMid meet">

<g transform="translate(0.000000,512.000000) scale(0.100000,-0.100000)"
fill="#fff" stroke="none">
<path d="M480 3174 c-297 -79 -494 -347 -477 -650 14 -256 175 -469 425 -562
91 -34 239 -41 346 -18 121 27 208 77 301 170 132 132 188 267 188 446 0 180
-56 314 -188 445 -92 92 -166 136 -281 165 -92 24 -233 26 -314 4z"/>
<path d="M2440 3174 c-212 -55 -387 -221 -453 -429 -17 -55 -22 -94 -22 -185
0 -91 5 -130 22 -185 53 -167 172 -305 326 -379 108 -52 168 -66 281 -66 175
0 319 61 446 189 124 125 182 262 183 436 1 112 -14 176 -65 285 -75 157 -233
287 -403 330 -93 24 -233 26 -315 4z"/>
<path d="M4322 3170 c-112 -30 -187 -74 -277 -165 -132 -131 -188 -265 -188
-445 0 -179 56 -314 188 -446 135 -136 282 -192 479 -181 163 8 294 67 410
183 72 72 117 145 154 246 23 64 26 88 26 198 0 110 -3 134 -26 198 -69 192
-204 328 -396 400 -94 35 -265 41 -370 12z"/>
</g>
</svg>
